<?xml version="1.0" encoding="utf-8"?>
<!-- Generator: Adobe Illustrator 15.0.2, SVG Export Plug-In . SVG Version: 6.00 Build 0)  -->
<!DOCTYPE svg PUBLIC "-//W3C//DTD SVG 1.1//EN" "http://www.w3.org/Graphics/SVG/1.1/DTD/svg11.dtd">
<svg version="1.1" id="Layer_1" xmlns="http://www.w3.org/2000/svg" xmlns:xlink="http://www.w3.org/1999/xlink" x="0px" y="0px"
	 width="443.52px" height="337.68px" viewBox="-167.76 -132.84 443.52 337.68"
	 enable-background="new -167.76 -132.84 443.52 337.68" xml:space="preserve">
<pattern  x="-179.5" y="360.5" width="54" height="54" patternUnits="userSpaceOnUse" id="New_Pattern_Swatch_1" viewBox="0 -54 54 54" overflow="visible">
	<g>
		<polygon fill="none" points="0,0 54,0 54,-54 0,-54 		"/>
		<polygon fill="#6B6B6B" points="54,0 0,0 0,-54 54,-54 		"/>
	</g>
</pattern>
<g>
	<polygon fill="#8CC640" points="117.267,26.078 215.809,129.565 53.003,78.482 	"/>
	<polygon fill="#8CC640" points="-3.822,-127.47 32.61,29.457 41.945,23.385 81.646,28.99 94.259,0.969 	"/>
	<path fill="#6B6B6B" d="M94.984-2.159c17.889-36.629,35.483-74.53,53.943-111.235c1.012-2.008,1.552-6.17,5.032-5.87
		c2.212,2.823,0.595,6.555,0.274,9.499c-5.146,46.912-10.316,94.444-15.364,142.256c-0.344,3.354-1.592,7.665-1.117,10.063
		c0.6,3.087,7.626,8.746,10.337,11.457c18.315,18.312,33.885,36.673,52.539,55.342c4.79,4.78,10.412,10.678,15.935,16.484
		c1.612,1.703,4.79,4.305,3.915,6.154c-1.328,2.766-19.4,1.401-23.76,1.401c-50.543,0-98.424,0.824-148.682,0.824
		c-8.451,0-17.396-1.017-24.875,0c-4.426,0.613-9.387,3.149-14.259,4.753c-12.265,4.065-22.456,7.152-35.771,11.466
		c-6.491,2.097-7.624,2.793-9.5-3.911c-0.685-2.473-1.122-3.544-1.673-6.438c-6.935,3.278-10.674-5.761-13.693-9.771
		c-1.294-1.722-2.748-3.096-4.192-5.037c-1.161-1.575-3.608-4.515-3.629-5.586c-0.084-4.168,8.558-7.341,9.22-11.173
		c0.421-2.418-1.427-8.874-1.956-12.021c-4.521-26.915-10.142-55.689-14.254-82.167c-10.334,3.718-21.622,8.51-32.424,13.133
		c-3.269,1.406-6.93,4.451-10.621,2.804c-0.623-3.024,2.282-5.145,3.91-7.273C-95.667,9.905-85.47-3.074-74.934-16.69
		c1.491-1.932,3.61-6.067,5.307-6.429c1.566-0.336,5.403,1.252,7.265,1.674c5.504,1.262,9.002,2.129,14.534,3.354
		c2.505,0.557,5.44,0.538,7.269,1.397c2.443,1.149,6.028,7.244,7.821,9.503c2.757,3.466,5.293,6.607,7.821,9.22
		c6.475-44.583,12.068-90.041,19.002-134.15c2.894-2.919,5.959,3.816,8.107,6.706C32.297-84.88,65.423-41.57,94.984-2.159z
		 M33.219,26.625c3.629-0.547,5.131-6.156,9.222-6.713c2.223-0.295,6.34,1.11,9.506,1.678c9.639,1.735,20.381,3.736,28.788,5.312
		c3.968-8.045,7.931-16.097,11.738-24.321C61.666-39.28,30.477-80.755-0.878-122.064C10.398-72.412,22.061-23.137,33.219,26.625z
		 M-8.14-87.403c-3.62,26.446-7.4,52.065-10.907,78.534c-0.474,3.592-2.622,12.814-1.951,15.928
		c0.295,1.401,2.583,3.361,3.911,5.033C-7.41,24.276,1.332,35.703,10.862,46.75c6.748-5.926,13.767-11.567,20.12-17.888
		C19.111-20.292,8.447-70.644-3.673-119.545C-4.722-109.188-6.609-98.62-8.14-87.403z M80.735,37.25
		c4.011,1.752,8.07,3.482,12.294,5.03c5.985-4.677,11.846-9.676,17.889-14.82c1.337-1.135,4.803-4.613,6.705-4.469
		c1.628,0.138,2.805,2.384,4.197,3.915c2.854,3.153,5.378,5.378,8.103,8.107c1.243,1.234,2.303,3.411,3.919,3.072
		c4.77-47.401,10.818-95.007,15.09-141.98C126.42-56.63,103.351-9.911,80.735,37.25z M-68.228-18.368
		C-77.533-6.524-86.661,5.498-95.903,17.403c8.057-6.653,16.674-13.65,24.875-20.683c2.711-2.326,5.472-5.875,8.389-6.985
		c5.25-1.999,11.229-0.863,17.324-2.8C-52.859-14.927-60.609-16.587-68.228-18.368z M-41.404-10.543
		c-6.246,1.012-12.702,1.825-19.003,2.8c8.865,50.655,18.646,100.415,27.668,150.912C-15.611,116.698,0.885,89.6,17.287,62.4
		C-2.229,38.047-21.364,13.295-41.404-10.543z M-79.412,7.34c-5.477,4.657-11.113,9.351-15.646,13.973
		c0.014-0.174,0.041-0.328,0.277-0.277c5.083-2.246,10.202-4.251,15.37-6.438c4.975-2.099,9.973-5.222,15.651-5.588
		c1.969,4.858,2.438,10.231,3.35,15.372c6.095,34.347,12.784,69.871,19.003,103.682c0.456,2.491,0.258,5.448,1.959,7.546
		c3.535-0.559,1.239-5.11,0.831-7.271C-46.938,83.83-55.001,38.047-63.207-5.804C-68.519-2.06-73.963,2.709-79.412,7.34z
		 M76.545,35.572c0.524-1.566,2.189-3.324,1.944-4.751c-7.656-0.913-15.42-3.207-22.632-3.628
		C62.909,29.823,69.585,32.834,76.545,35.572z M13.653,50.66c2.278,2.655,4.22,5.65,6.708,8.109
		c6.092-10.216,12.432-20.18,18.723-30.189c0.066-0.346,0.438-0.565-0.277-0.552C30.74,35.886,21.545,42.619,13.653,50.66z
		 M55.013,73.582c10.889-8.686,23.163-18.398,33.82-28.229c-14.131-5.531-27.691-11.623-41.918-17.052
		C49.496,43.517,52.181,58.627,55.013,73.582z M117.064,28.306c-20.049,16.658-40.432,32.978-60.087,50.03
		c51.6,15.935,102.597,32.482,153.991,48.628C180.674,94.179,148.447,60.908,117.064,28.306z M-25.19,139.822
		c0.858,0.385,1.463-0.724,1.95-1.127c22.353-17.922,44.034-36.137,65.958-54.773c2.631-2.248,9.007-5.902,9.506-8.398
		c0.426-2.115-1.36-8.04-1.96-11.456c-1.905-10.843-4.499-26.572-6.706-34.647C20.781,66.356-2.126,103.163-25.19,139.822z
		 M39.371,105.718c-3.732,6.163-7.441,12.271-10.902,18.16c-1.218,2.088-2.905,4.194-2.798,5.88
		c60.477-0.266,121.137-0.357,181.107-1.127c-50.831-15.88-101.289-32.117-152.038-48.07
		C49.509,88.345,44.506,97.229,39.371,105.718z M11.421,115.498c-10.958,9.094-22.099,18.481-32.701,27.392
		c-0.435,0.366-1.589,0.77-1.396,1.677c14.609-4.771,29.005-9.744,43.878-14.25c8.787-14.699,17.749-29.214,26.272-44.169
		c0.295,0,0.22-0.357-0.282-0.275C35.907,95.882,23.402,105.553,11.421,115.498z M-53.976,120.242
		c2.388,3.21,4.792,6.383,7.26,9.516c-0.854-5.019-1.305-10.432-2.787-14.818C-50.926,116.78-52.783,118.191-53.976,120.242z"/>
</g>
<g>
	<pattern  id="SVGID_1_" xlink:href="#New_Pattern_Swatch_1" patternTransform="matrix(1.3182 0 0 1.3182 2484.6807 2677.5361)">
	</pattern>
	<path fill="#6B6B6B" stroke="url(#SVGID_1_)" stroke-width="0.5616" stroke-miterlimit="10" d="M-155.495,167.108h-10.057v-3.621
		h24.483v3.621h-10.104v29.432h-4.322V167.108z"/>
	<pattern  id="SVGID_2_" xlink:href="#New_Pattern_Swatch_1" patternTransform="matrix(1.3182 0 0 1.3182 2484.6807 2677.5361)">
	</pattern>
	<path fill="#6B6B6B" stroke="url(#SVGID_2_)" stroke-width="0.5616" stroke-miterlimit="10" d="M-129.438,163.487v13.833h15.993
		v-13.833h4.312v33.053h-4.307v-15.5h-15.999v15.5h-4.312v-33.053H-129.438z"/>
	<pattern  id="SVGID_3_" xlink:href="#New_Pattern_Swatch_1" patternTransform="matrix(1.3182 0 0 1.3182 2484.6807 2677.5361)">
	</pattern>
	<path fill="#6B6B6B" stroke="url(#SVGID_3_)" stroke-width="0.5616" stroke-miterlimit="10" d="M-80.952,181.04h-12.8v11.926
		h14.327v3.574h-18.649v-33.053h17.907v3.574h-13.591v10.453h12.8v3.525H-80.952z"/>
	<pattern  id="SVGID_4_" xlink:href="#New_Pattern_Swatch_1" patternTransform="matrix(1.3182 0 0 1.3182 2484.6807 2677.5361)">
	</pattern>
	<path fill="#6B6B6B" stroke="url(#SVGID_4_)" stroke-width="0.5616" stroke-miterlimit="10" d="M-33.056,195.515
		c-1.521,0.784-4.711,1.568-8.734,1.568c-9.319,0-16.285-5.872-16.285-16.779c0-10.395,7.014-17.359,17.264-17.359
		c4.071,0,6.718,0.88,7.85,1.473l-1.078,3.47c-1.568-0.785-3.875-1.375-6.624-1.375c-7.751,0-12.899,4.961-12.899,13.641
		c0,8.143,4.66,13.285,12.657,13.285c2.654,0,5.298-0.531,7.015-1.364L-33.056,195.515z"/>
	<pattern  id="SVGID_5_" xlink:href="#New_Pattern_Swatch_1" patternTransform="matrix(1.3182 0 0 1.3182 2484.6807 2677.5361)">
	</pattern>
	<path fill="#6B6B6B" stroke="url(#SVGID_5_)" stroke-width="0.5616" stroke-miterlimit="10" d="M-23.978,163.921
		c2.158-0.387,5.3-0.688,8.197-0.688c4.563,0,7.554,0.88,9.562,2.703c1.62,1.473,2.599,3.724,2.599,6.325
		c0,4.312-2.746,7.209-6.181,8.393v0.144c2.501,0.882,4.022,3.23,4.807,6.671c1.081,4.61,1.865,7.804,2.554,9.071h-4.415
		c-0.537-0.978-1.271-3.767-2.155-7.895c-0.983-4.564-2.801-6.279-6.676-6.423h-4.023v14.317h-4.268V163.921z M-19.703,178.987
		h4.369c4.561,0,7.452-2.511,7.452-6.29c0-4.262-3.091-6.12-7.603-6.12c-2.059,0-3.479,0.145-4.219,0.338V178.987z"/>
	<pattern  id="SVGID_6_" xlink:href="#New_Pattern_Swatch_1" patternTransform="matrix(1.3182 0 0 1.3182 2484.6807 2677.5361)">
	</pattern>
	<path fill="#6B6B6B" stroke="url(#SVGID_6_)" stroke-width="0.5616" stroke-miterlimit="10" d="M23.18,181.04H10.371v11.926h14.327
		v3.574H6.059v-33.053h17.906v3.574H10.371v10.453H23.18V181.04z"/>
	<pattern  id="SVGID_7_" xlink:href="#New_Pattern_Swatch_1" patternTransform="matrix(1.3182 0 0 1.3182 2484.6807 2677.5361)">
	</pattern>
	<path fill="#6B6B6B" stroke="url(#SVGID_7_)" stroke-width="0.5616" stroke-miterlimit="10" d="M39.281,186.146l-3.438,10.394
		h-4.413l11.285-33.053h5.1l11.289,33.053H54.54l-3.534-10.394H39.281z M50.17,182.813l-3.286-9.524
		c-0.737-2.16-1.226-4.117-1.715-6.035h-0.096c-0.489,1.918-0.983,3.971-1.669,5.986l-3.233,9.573H50.17z"/>
	<pattern  id="SVGID_8_" xlink:href="#New_Pattern_Swatch_1" patternTransform="matrix(1.3182 0 0 1.3182 2484.6807 2677.5361)">
	</pattern>
	<path fill="#6B6B6B" stroke="url(#SVGID_8_)" stroke-width="0.5616" stroke-miterlimit="10" d="M70.14,167.108H60.09v-3.621h24.477
		v3.621H74.462v29.432H70.14V167.108z"/>
	<pattern  id="SVGID_9_" xlink:href="#New_Pattern_Swatch_1" patternTransform="matrix(1.3182 0 0 1.3182 2484.6807 2677.5361)">
	</pattern>
	<path fill="#6B6B6B" stroke="url(#SVGID_9_)" stroke-width="0.5616" stroke-miterlimit="10" d="M96.201,163.487v33.053h-4.31
		v-33.053H96.201z"/>
	<pattern  id="SVGID_10_" xlink:href="#New_Pattern_Swatch_1" patternTransform="matrix(1.3182 0 0 1.3182 2484.6807 2677.5361)">
	</pattern>
	<path fill="#6B6B6B" stroke="url(#SVGID_10_)" stroke-width="0.5616" stroke-miterlimit="10" d="M114.608,196.54l-10.845-33.053
		h4.665l5.154,16.284c1.368,4.467,2.595,8.488,3.528,12.362h0.099c0.927-3.827,2.255-8.003,3.776-12.313l5.589-16.333h4.561
		l-11.819,33.053H114.608z"/>
	<pattern  id="SVGID_11_" xlink:href="#New_Pattern_Swatch_1" patternTransform="matrix(1.3182 0 0 1.3182 2484.6807 2677.5361)">
	</pattern>
	<path fill="#6B6B6B" stroke="url(#SVGID_11_)" stroke-width="0.5616" stroke-miterlimit="10" d="M155.482,181.04h-12.8v11.926
		h14.326v3.574h-18.647v-33.053h17.904v3.574h-13.589v10.453h12.8v3.525H155.482z"/>
	<pattern  id="SVGID_12_" xlink:href="#New_Pattern_Swatch_1" patternTransform="matrix(1.3182 0 0 1.3182 2484.6807 2677.5361)">
	</pattern>
	<path fill="#6B6B6B" stroke="url(#SVGID_12_)" stroke-width="0.5616" stroke-miterlimit="10" d="M180.275,163.487h17.806v3.574
		h-13.489v10.984h12.458v3.537h-12.458v14.957h-4.316V163.487z"/>
	<pattern  id="SVGID_13_" xlink:href="#New_Pattern_Swatch_1" patternTransform="matrix(1.3182 0 0 1.3182 2484.6807 2677.5361)">
	</pattern>
	<path fill="#6B6B6B" stroke="url(#SVGID_13_)" stroke-width="0.5616" stroke-miterlimit="10" d="M224.974,181.04h-12.809v11.926
		h14.322v3.574h-18.639v-33.053h17.909v3.574h-13.593v10.453h12.809V181.04z"/>
	<pattern  id="SVGID_14_" xlink:href="#New_Pattern_Swatch_1" patternTransform="matrix(1.3182 0 0 1.3182 2484.6807 2677.5361)">
	</pattern>
	<path fill="#6B6B6B" stroke="url(#SVGID_14_)" stroke-width="0.5616" stroke-miterlimit="10" d="M241.565,196.54l-8.389-33.053
		h4.507l3.931,16.72c0.978,4.129,1.865,8.245,2.444,11.433h0.104c0.544-3.284,1.569-7.208,2.71-11.476l4.406-16.672h4.472
		l4.015,16.77c0.936,3.94,1.823,7.852,2.305,11.336h0.104c0.683-3.635,1.618-7.305,2.645-11.434l4.37-16.672h4.364l-9.369,33.06
		h-4.473l-4.17-17.215c-1.033-4.219-1.715-7.461-2.162-10.792h-0.096c-0.544,3.284-1.328,6.53-2.548,10.792l-4.72,17.215h-4.449
		V196.54z"/>
</g>
</svg>
