<?xml version="1.0" encoding="utf-8"?>
<!-- Generator: Adobe Illustrator 15.0.2, SVG Export Plug-In . SVG Version: 6.00 Build 0)  -->
<!DOCTYPE svg PUBLIC "-//W3C//DTD SVG 1.1//EN" "http://www.w3.org/Graphics/SVG/1.1/DTD/svg11.dtd">
<svg version="1.1" id="Google" xmlns="http://www.w3.org/2000/svg" xmlns:xlink="http://www.w3.org/1999/xlink" x="0px" y="0px"
	 width="443.52px" height="337.68px" viewBox="0 0 443.52 337.68" enable-background="new 0 0 443.52 337.68" xml:space="preserve">
<g>
	<path fill="#4285F4" d="M109.042,147.485H56.841v15.357h37.152c-1.813,21.535-19.73,30.719-36.642,30.719
		c-21.637,0-40.518-17.023-40.518-40.886c0-23.244,17.999-41.146,40.565-41.146c17.411,0,27.67,11.099,27.67,11.099l10.753-11.135
		c0,0-13.802-15.365-38.973-15.365C24.796,96.129,0,123.182,0,152.401c0,28.633,23.325,56.553,57.666,56.553
		c30.204,0,52.312-20.69,52.312-51.287c0-6.455-0.938-10.186-0.938-10.186L109.042,147.485z"/>
	<path fill="#EA4335" d="M153.229,136.364c-21.235,0-36.455,16.602-36.455,35.965c0,19.648,14.762,36.559,36.704,36.559
		c19.864,0,36.137-15.182,36.137-36.137C189.616,148.733,170.687,136.364,153.229,136.364L153.229,136.364z M153.44,150.607
		c10.443,0,20.339,8.443,20.339,22.048c0,13.315-9.854,21.999-20.387,21.999c-11.573,0-20.703-9.27-20.703-22.104
		C132.689,159.988,141.706,150.607,153.44,150.607L153.44,150.607z"/>
	<path fill="#FBBC05" d="M232.064,136.364c-21.236,0-36.455,16.602-36.455,35.965c0,19.648,14.761,36.559,36.704,36.559
		c19.864,0,36.138-15.182,36.138-36.137C268.451,148.733,249.521,136.364,232.064,136.364L232.064,136.364z M232.275,150.607
		c10.443,0,20.339,8.443,20.339,22.048c0,13.315-9.854,21.999-20.387,21.999c-11.573,0-20.704-9.27-20.704-22.104
		C211.524,159.988,220.541,150.607,232.275,150.607L232.275,150.607z"/>
	<path fill="#4285F4" d="M309.829,136.402c-19.492,0-34.813,17.071-34.813,36.233c0,21.826,17.763,36.301,34.478,36.301
		c10.335,0,15.83-4.103,19.888-8.812v7.15c0,12.511-7.597,20.003-19.062,20.003c-11.076,0-16.632-8.236-18.562-12.91l-13.937,5.826
		c4.943,10.454,14.896,21.356,32.615,21.356c19.38,0,34.15-12.207,34.15-37.808v-66.058h-15.204v7.04
		C324.706,139.688,318.313,136.403,309.829,136.402L309.829,136.402z M311.239,150.617c9.557,0,19.37,8.16,19.37,22.095
		c0,14.165-9.793,21.971-19.581,21.971c-10.392,0-20.061-8.438-20.061-21.836C290.968,158.925,301.01,150.617,311.239,150.617
		L311.239,150.617z"/>
	<path fill="#EA4335" d="M410.84,136.315c-18.387,0-33.824,14.629-33.824,36.214c0,22.841,17.207,36.388,35.59,36.388
		c15.343,0,24.76-8.394,30.379-15.914l-12.535-8.341c-3.253,5.049-8.691,9.981-17.767,9.981c-10.194,0-14.882-5.582-17.785-10.989
		l48.622-20.176l-2.524-5.913c-4.696-11.578-15.654-21.248-30.153-21.248L410.84,136.315z M411.474,150.262
		c6.625,0,11.393,3.522,13.418,7.746L392.42,171.58C391.021,161.072,400.976,150.262,411.474,150.262L411.474,150.262z"/>
	<rect x="354.731" y="99.88" fill="#34A853" width="14.894" height="106.884"/>
</g>
</svg>
