<?xml version="1.0" encoding="utf-8"?>
<!-- Generator: Adobe Illustrator 22.1.0, SVG Export Plug-In . SVG Version: 6.00 Build 0)  -->
<svg version="1.1" id="Layer_1" xmlns="http://www.w3.org/2000/svg" xmlns:xlink="http://www.w3.org/1999/xlink" x="0px" y="0px"
	 viewBox="0 0 1080 822.2" style="enable-background:new 0 0 1080 822.2;" xml:space="preserve">
<style type="text/css">
	.st0{fill:#B7C1C6;}
	.st1{fill:#172429;}
	.st2{fill:none;}
	.st3{opacity:0.5;}
	.st4{clip-path:url(#SVGID_2_);}
	.st5{fill:#FFFFFF;}
	.st6{fill:url(#SVGID_3_);}
	.st7{fill:#22D8D8;}
</style>
<g id="Ebene_2">
</g>
<g id="Gruppe_1_xA0_Bild_1_">
	<g>
		<path class="st0" d="M813.6,283.6l-2.9-0.6c1-11.7,1.6-24,1.3-35.6c-0.3-12.4-4.1-64.3-14.5-94.9c-5.2-15.2-10.7-29.8-21-43
			c-1.2-1.4-2.3-2.9-3.6-4.4c-1.3-1.6-3.9-0.3-3.5,1.7c13.2,57,12.7,120.6,3.3,177.4c-6.1,37-14.7,80-34.1,111.7
			c-21.4,35-60.8,43.2-96.4,48.6c-33.7,5.2-102.3,5.9-102.3,5.9s-68.6-0.8-102.3-5.9c-35.5-5.4-75-13.6-96.4-48.6
			c-19.3-31.7-28-74.9-34.1-111.7c-9.3-56.7-9.9-120.2,3.3-177.4c0.5-2-2.1-3.2-3.5-1.7c-1.3,1.5-2.4,3-3.6,4.4
			c-10.3,13.1-15.8,27.6-21,43c-10.4,30.5-14.2,82.5-14.5,94.9c-0.3,11.6,0.2,23.8,1.3,35.6l-2.9,0.6c-5.4,1.2-9,5.5-8.2,10.3
			L275.2,403c0.7,4.7,5.5,8.2,11.1,8.1l12.4-0.3c2.6,6,5.5,12,8.8,17.7c7.7,13.8,18.8,24.1,32.2,32c12.9,7.7,27.1,11.9,41.6,15.1
			c16.9,3.8,34.1,6.1,51.4,8.1c4.5,0.6,12.2,1.5,16.9,2.1c1.2,0.1,1.4,1.7,0.2,2.1c-13.5,3.9-42.2,17.2-54.6,29
			c-11.5,10.1-22,21.2-30.8,33.7c-7.5,10.8-14.3,22.2-17.6,35.2c0,0.1,0,0.1,0,0.2c-2.8,11.1,3.8,22.3,14.6,26
			c54.6,18.3,114.8,28.4,178.2,28.4s123.5-10.1,178.2-28.4c10.8-3.7,17.4-15,14.6-26c0-0.1,0-0.1,0-0.2c-3.3-13-10-24.3-17.6-35.2
			c-8.8-12.6-19.2-23.7-30.8-33.7c-12.6-11.9-41.2-25.1-54.6-29c-1-0.3-0.8-2,0.2-2.1c4.7-0.6,12.4-1.5,16.9-2.1
			c17.3-2.1,34.4-4.3,51.4-8.1c14.5-3.2,28.7-7.4,41.6-15.1c13.5-7.9,24.5-18.2,32.2-32c3.2-5.8,6.1-11.7,8.8-17.7l12.4,0.3
			c5.5,0.1,10.3-3.3,11.1-8.1l17.2-109.1C822.4,289.1,818.9,284.7,813.6,283.6z"/>
		<path class="st1" d="M990,802.9l-32-88.9l-0.1-0.3c-5-12.6-17-20.8-30.6-20.8c-13.5,0-25.5,8.1-30.6,20.6l-32.4,89.3
			c-0.9,2.6-1,5.2-0.6,7.8c1.5,6.5,7.2,11.3,13.6,11.3h44.5c3.8,0,7.1-2.4,8-6.1s-0.8-7.3-4.2-9.2l-27.6-15.2l24.6-67.7
			c0.8-1.9,2.6-2.9,4.5-2.9c2,0,3.7,1.2,4.5,2.9l31.9,88.6c2,5.5,7.2,9.2,13.2,9.2c1.6,0,3.3-0.2,4.7-0.8c3.5-1.2,6.3-3.7,7.9-7.2
			C991,810.1,991.4,806.2,990,802.9z M148,803.6c-4.7-2.6-10-5.5-12.2-6.8V722l9.5-5.4c2.9-1.6,4.8-4.8,5.1-8.5
			c0.2-4.1-1.2-7.8-4.3-10.2c-2-1.6-4.3-1.9-5.9-1.9h-37c-1.7,0-3.8,0.2-5.9,1.9c-2.9,2.4-4.5,6.2-4.3,10.2c0.2,3.6,2.3,6.9,5.1,8.5
			l9.5,5.4v73.1h-6.4c-7.1,0-13.2,6.3-13.2,13.8c0,7.3,6.1,13.5,13.2,13.5h44c3.7,0,6.9-2.6,7.9-6.5
			C154.2,812,153.1,806.5,148,803.6z M826.4,692.9c-7.8,0-14.1,6.3-14.1,14v86.2h-2.9c-0.2,0-0.3,0-0.3,0l-39.9-82.4
			c-4.8-9.7-14.3-15.4-25.6-15.4h-15.2c-8,0-14.4,5.9-14.4,13.3v99.9c0,7.7,6.3,14,14.1,14c7.8,0,14.1-6.3,14.1-14V723h1.6
			c0.2,0,0.3,0,0.3,0l40,83.3c5,10,14.8,16.4,25.6,16.4h16.6c7.4,0,14.3-7.1,14.3-15V707.1C840.4,699.2,834.2,692.9,826.4,692.9z
			 M550.8,697.2h-89.4c-7.8,0-14,6.1-14,13.8c0,7.8,6.2,13.8,14,13.8h31v81.9c0,7.8,6.1,14,13.8,14c7.8,0,13.8-6.2,13.8-14v-81.9
			h30.7c7.8,0,14-6.1,14-13.8C564.7,703.2,558.6,697.2,550.8,697.2z M290.9,695.3c-7.7,0-13.8,6.3-13.8,14v83.8h-2.9
			c-0.2,0-0.3,0-0.3,0l-39.9-82.4c-4.8-9.7-14.3-15.4-25.6-15.4H193c-8,0-14.4,5.9-14.4,13.3v99.9c0,7.7,6.3,14,14.1,14
			c7.8,0,14.1-6.3,14.1-14V723h1.6c0.2,0,0.3,0,0.3,0l40,83.3c5,10,14.8,16.4,25.6,16.4H291c7.3,0,14-7,14-15v-98.2
			C304.8,701.6,298.6,695.3,290.9,695.3z M657.5,713.9l-0.1-0.3c-5-12.6-17-20.8-30.6-20.8c-13.5,0-25.5,8.1-30.6,20.6l-32.5,89.4
			c-0.9,2.6-1,5.2-0.6,7.8c1.5,6.5,7.2,11.3,13.6,11.3h44.5c3.8,0,7.1-2.4,8-6.1c0.9-3.6-0.8-7.3-4.2-9.2l-27.4-15.2l24.6-67.7
			c0.8-1.7,2.6-2.9,4.5-2.9c2,0,3.7,1.2,4.5,2.9l31.9,88.6c2,5.5,7.2,9.2,13.2,9.2c1.6,0,3.3-0.2,4.7-0.8
			c7.2-2.6,10.9-10.6,8.5-17.8L657.5,713.9z M412.7,756.5l-42.9-19.7c-3.8-1.6-10.5-5.1-10.5-9.8c0-2.9,2.4-5.4,5.4-5.4h37.5
			c2.3,0,4.1,1,5,3.3c2.4,5.8,7,9,12.6,9c1.4,0,2.8-0.2,4.1-0.7c3.4-1,6.2-3.5,7.8-6.5c1.6-3.3,1.9-6.8,0.8-10.2
			c-4.5-14.1-15-21.4-30-21.4h-37.5c-17.6,0-31.9,14.3-31.9,31.9c0,14.8,9.4,26.8,26.4,34.1l43.1,19.8c1.7,0.7,10.4,4.4,10.4,9.7
			c0,2.9-2.4,5.4-5.4,5.4h-46.2c-2.6,0-5.1-1.6-5.8-3.7c-1.7-5.5-6.9-9.2-12.6-9.2c-1.4,0-2.8,0.2-4.2,0.7c-3.4,1-6.2,3.5-7.8,6.5
			c-1.5,2.9-1.9,6.4-0.8,10c3.8,14.3,15,22.1,31,22.1h46.2c17.6,0,31.9-14.3,31.9-31.9C439.2,776,429.5,763.5,412.7,756.5z"/>
		<path class="st2" d="M813.6,283.6l-2.9-0.6c1-11.7,1.6-24,1.3-35.6c-0.3-12.4-4.1-64.3-14.5-94.9c-5.2-15.2-10.7-29.8-21-43
			c-1.2-1.4-2.3-2.9-3.6-4.4c-1.3-1.6-3.9-0.3-3.5,1.7c13.2,57,12.7,120.6,3.3,177.4c-6.1,37-14.7,80-34.1,111.7
			c-21.4,35-60.8,43.2-96.4,48.6c-33.7,5.2-102.3,5.9-102.3,5.9s-68.6-0.8-102.3-5.9c-35.5-5.4-75-13.6-96.4-48.6
			c-19.3-31.7-28-74.9-34.1-111.7c-9.3-56.7-9.9-120.2,3.3-177.4c0.5-2-2.1-3.2-3.5-1.7c-1.3,1.5-2.4,3-3.6,4.4
			c-10.3,13.1-15.8,27.6-21,43c-10.4,30.5-14.2,82.5-14.5,94.9c-0.3,11.6,0.2,23.8,1.3,35.6l-2.9,0.6c-5.4,1.2-9,5.5-8.2,10.3
			L275.2,403c0.7,4.7,5.5,8.2,11.1,8.1l12.4-0.3c2.6,6,5.5,12,8.8,17.7c7.7,13.8,18.8,24.1,32.2,32c12.9,7.7,27.1,11.9,41.6,15.1
			c16.9,3.8,34.1,6.1,51.4,8.1c4.5,0.6,12.2,1.5,16.9,2.1c1.2,0.1,1.4,1.7,0.2,2.1c-13.5,3.9-42.2,17.2-54.6,29
			c-11.5,10.1-22,21.2-30.8,33.7c-7.5,10.8-14.3,22.2-17.6,35.2c0,0.1,0,0.1,0,0.2c-2.8,11.1,3.8,22.3,14.6,26
			c54.6,18.3,114.8,28.4,178.2,28.4s123.5-10.1,178.2-28.4c10.8-3.7,17.4-15,14.6-26c0-0.1,0-0.1,0-0.2c-3.3-13-10-24.3-17.6-35.2
			c-8.8-12.6-19.2-23.7-30.8-33.7c-12.6-11.9-41.2-25.1-54.6-29c-1-0.3-0.8-2,0.2-2.1c4.7-0.6,12.4-1.5,16.9-2.1
			c17.3-2.1,34.4-4.3,51.4-8.1c14.5-3.2,28.7-7.4,41.6-15.1c13.5-7.9,24.5-18.2,32.2-32c3.2-5.8,6.1-11.7,8.8-17.7l12.4,0.3
			c5.5,0.1,10.3-3.3,11.1-8.1l17.2-109.1C822.4,289.1,818.9,284.7,813.6,283.6z"/>
		<g class="st3">
			<g>
				<g>
					<defs>
						<path id="SVGID_1_" d="M732.8,585.9c-3.3-13-10-24.3-17.6-35.2c-8.8-12.6-19.2-23.7-30.8-33.7c-12.6-11.9-41.2-25.1-54.6-29
							c-1-0.3-0.8-2,0.2-2.1c4.7-0.6-47,2-90.1,2s-94.8-2.5-90.1-2c1.2,0.1,1.4,1.7,0.2,2.1c-13.5,3.9-42.2,17.2-54.6,29
							c-11.5,10.1-22,21.2-30.8,33.7c-7.5,10.8-14.3,22.2-17.6,35.2c0,0.1,0,0.1,0,0.2c-2.8,11.1,3.8,22.3,14.6,26
							c54.6,18.3,114.8,28.4,178.2,28.4s123.5-10.1,178.2-28.4c10.8-3.7,17.4-15,14.6-26C732.8,586,732.8,585.9,732.8,585.9z"/>
					</defs>
					<clipPath id="SVGID_2_">
						<use xlink:href="#SVGID_1_"  style="overflow:visible;"/>
					</clipPath>
					<g class="st4">
						<g>
							<ellipse class="st5" cx="540.1" cy="438.4" rx="248.4" ry="44.7"/>
						</g>
					</g>
				</g>
			</g>
		</g>
		<path class="st1" d="M300.8,166.7c-2.9,43.3-0.2,86.7,8.2,129.2c7.8,39.3,14.1,80.7,41,113.1c23,27.6,64.1,35.4,96.7,39.3
			c30.9,3.7,93.3,4.5,93.3,4.5s62.4-0.8,93.3-4.5C666,444.5,707,436.7,730,409c26.9-32.4,33.2-73.8,41-113.1
			c8.5-42.5,11.1-85.9,8.2-129.2c-1-16.6-3.2-33.6-6.1-50.2c-1.7-10.4-7-19.8-14.7-26.8C749,81,736.6,70.9,720,59
			c-15.3-11.1-31.2-21.2-48.6-29C649.1,19.8,626.1,11.6,602,6.5c-18.7-4-45.1-7.5-62.2-7.5c-17,0-43.4,3.5-62.2,7.5
			c-24.1,5.2-47,13.4-69.4,23.5c-17.3,7.8-33.3,18-48.6,29c-16.6,12-28.9,22-38.4,30.6c-7.7,7-12.9,16.5-14.6,26.8
			C304.2,133.2,302,150.1,300.8,166.7z"/>
		
			<linearGradient id="SVGID_3_" gradientUnits="userSpaceOnUse" x1="349.5764" y1="339.882" x2="637.4355" y2="-6.5044" gradientTransform="matrix(1 0 0 1 0 30.1)">
			<stop  offset="0" style="stop-color:#43565E"/>
			<stop  offset="1" style="stop-color:#172429"/>
		</linearGradient>
		<path class="st6" d="M620.1,140.1c51.8,0,101.8,8.1,148.7,23c-1.2-13.9-3-28.1-5.3-42c-1.7-9.9-6.7-18.9-14.1-25.7
			c-9.1-8.3-20.8-18-36.7-29.4c-14.7-10.6-29.9-20.3-46.5-27.8c-21.4-9.7-43.4-17.6-66.5-22.6c-17.9-3.8-43.3-7.1-59.5-7.1
			s-41.7,3.3-59.5,7.1c-23,5-45,12.9-66.5,22.6c-16.6,7.5-31.8,17.3-46.5,27.8c-15.9,11.4-27.8,21.1-36.7,29.4
			c-7.4,6.8-12.3,15.8-14.1,25.7c-2.8,16-4.7,32.2-5.8,48.1c-1.7,26.7-1.3,53.4,1.4,79.9C396.3,181,503.4,140.1,620.1,140.1z"/>
		<g>
			
				<ellipse transform="matrix(0.9976 -6.971356e-02 6.971356e-02 0.9976 -22.9379 29.3632)" class="st7" cx="409.2" cy="343.3" rx="27.2" ry="34.4"/>
			<path class="st7" d="M668.4,377.7c15,0.9,28.2-13.7,29.7-32.7s-9.6-35.2-24.4-36.2c-15-0.9-28.2,13.7-29.7,32.7
				S653.6,376.6,668.4,377.7z"/>
		</g>
	</g>
</g>
</svg>
