<?xml version="1.0" encoding="UTF-8"?>
<svg width="403px" height="198px" viewBox="0 0 403 198" version="1.1" xmlns="http://www.w3.org/2000/svg" xmlns:xlink="http://www.w3.org/1999/xlink">
    <defs>
        <path d="M236.702392,87.0338235 C229.909275,82.3305666 225.377495,74.7303249 225.377495,65.6000369 C225.426822,64.5264119 225.647996,63.309158 225.775041,62.2405823 C225.860922,61.689089 227.504578,55.3073487 227.504578,51.7163459 C227.504578,36.591766 215.713167,24.3308715 201.167725,24.3308715 C186.622282,24.3308715 174.830872,36.591766 174.830872,51.7163459 C174.830872,66.8409257 186.622282,79.1018202 201.167725,79.1018202 C203.706017,79.1018202 208.233407,78.314714 208.478817,78.3103977 C208.732985,78.2701605 210.204245,78.2486107 210.348158,78.2486107 C219.293348,78.2661559 226.884469,83.5831744 231.135236,91.7400466 C222.819256,97.7996794 212.577161,101.37502 201.5,101.37502 C173.678644,101.37502 151.12498,78.8213556 151.12498,51 C151.12498,23.1786444 173.678644,0.624979524 201.5,0.624979524 C229.321356,0.624979524 251.87502,23.1786444 251.87502,51 C251.87502,65.1221353 246.063881,77.8870062 236.702392,87.0338235 Z" id="path-1"></path>
    </defs>
    <g id="logo-and-name-color-copy" stroke="none" stroke-width="1" fill="none" fill-rule="evenodd">
        <path d="M26,145.631206 L26.0387369,145.631206 C40.3981404,145.631206 52.0387369,157.271802 52.0387369,171.631206 L52.0387369,172 C52.0387369,186.359403 40.3981404,198 26.0387369,198 L26,198 C11.6405965,198 1.75851975e-15,186.359403 0,172 L0,171.631206 C-1.75851975e-15,157.271802 11.6405965,145.631206 26,145.631206 Z M15.9118568,182.277231 C18.7806733,184.881015 22.1498142,186.182887 26.0193807,186.182887 C29.8889471,186.182887 33.2414092,184.864324 36.0768673,182.227159 C38.9123255,179.589994 40.3300333,176.101643 40.3300333,171.762004 C40.3300333,167.422365 38.9123255,163.934015 36.0768673,161.296849 C33.2414092,158.659684 29.8889471,157.341121 26.0193807,157.341121 C22.1498142,157.341121 18.7973522,158.659684 15.961894,161.296849 C13.1264358,163.934015 11.708728,167.422365 11.708728,171.762004 C11.708728,176.101643 13.1097569,179.606684 15.9118568,182.277231 Z M135.400803,161.847647 L135.400803,189.943262 C135.400803,195.314421 133.299238,198 129.09611,198 C124.892981,198 122.791416,195.314421 122.791416,189.943262 L122.791416,165.853448 C122.791416,159.644425 120.189506,156.539961 114.985606,156.539961 C112.116789,156.539961 109.79842,157.608164 108.030429,159.744601 C106.262437,161.881039 105.378455,164.952123 105.378455,168.957943 L105.378455,189.943262 C105.378455,195.314421 103.27689,198 99.0737614,198 C94.8706326,198 92.7690683,195.314421 92.7690683,189.943262 L92.7690683,166.053738 C92.7690683,159.711188 90.1004418,156.539961 84.7631087,156.539961 C82.1611589,156.539961 79.9428631,157.624854 78.1081549,159.794674 C76.2734466,161.964494 75.3561063,164.952124 75.3561063,168.757653 L75.3561063,189.943262 C75.3561063,195.314421 73.2545419,198 69.0514132,198 C64.8482844,198 62.74672,195.314421 62.74672,189.943262 L62.74672,154.954566 C62.74672,149.605092 64.8482844,146.930356 69.0514132,146.930356 C72.8549315,146.930356 74.9958283,148.884117 75.3561063,154.036335 C78.8253728,148.695241 83.6289004,145.524008 89.7668334,145.524008 C96.7053664,145.524008 101.308747,148.361422 103.577114,154.036335 C107.113097,148.361422 112.383634,145.524008 119.388884,145.524008 C124.45935,145.524008 128.395574,146.992787 131.197674,149.930389 C133.999774,152.867991 135.268457,155.84312 135.400803,161.847647 Z M194.845052,162.748952 L194.845052,189.943262 C194.845052,195.314421 192.743488,198 188.540359,198 C184.33723,198 182.235666,195.314421 182.235666,189.943262 L182.235666,167.956493 C182.235666,160.879543 178.866525,157.341121 172.128142,157.341121 C168.792309,157.341121 166.040288,158.642993 163.871996,161.246777 C161.703705,163.85056 160.619575,167.222076 160.619575,171.361424 L160.619575,189.943262 C160.619575,195.314421 158.518011,198 154.314882,198 C150.111753,198 148.010189,195.314421 148.010189,189.943262 L148.010189,154.982776 C148.010189,149.611618 150.111753,146.926039 154.314882,146.926039 C158.518011,146.926039 160.619575,149.611618 160.619575,154.982776 C164.689292,148.661854 170.293407,145.524008 177.43209,145.524008 C182.702707,145.524008 186.922472,147.092931 190.091514,150.230824 C193.260555,153.368717 194.810593,156.567178 194.845052,162.748952 Z M207.354364,189.943262 L207.354364,154.982776 C207.354364,149.611618 209.455928,146.926039 213.659057,146.926039 C217.862186,146.926039 219.96375,149.611618 219.96375,154.982776 L219.96375,189.943262 C219.96375,195.314421 217.862186,198 213.659057,198 C209.455928,198 207.354364,195.314421 207.354364,189.943262 Z M209.206092,137.971011 C207.971601,136.796064 207.354364,135.25397 207.354364,133.344681 C207.354364,131.435392 207.978949,129.900641 209.228137,128.740381 C210.477324,127.580121 211.954283,127 213.659057,127 C215.363831,127 216.84079,127.580121 218.089978,128.740381 C219.339166,129.900641 219.963751,131.435392 219.963751,133.344681 C219.963751,135.25397 219.339166,136.788721 218.089978,137.948981 C216.84079,139.109241 215.363831,139.689362 213.659057,139.689362 C211.954283,139.689362 210.469976,139.116584 209.206092,137.971011 Z M233.573894,157.14227 C230.238069,157.14131 228.570157,155.438365 228.570157,152.033435 C228.570157,148.628504 230.238069,146.926039 233.573894,146.926039 L236.275893,146.926039 L236.275893,141.563343 C236.275893,136.192185 238.377457,133.506605 242.580586,133.506605 C246.783715,133.506605 248.885279,136.192185 248.885279,141.563343 L248.885279,146.926039 L254.6896,146.926039 C258.025416,146.926039 259.693324,148.628504 259.693324,152.033435 C259.693324,155.438365 258.025416,157.140831 254.6896,157.140831 L248.885279,157.140831 L248.885279,179.773606 C248.885279,184.447064 250.986822,186.783757 255.189972,186.783757 C256.657739,186.783757 255.839464,186.802137 257.716454,186.592606 C259.198094,186.416662 261.609704,186.645895 262.203277,190.882464 C262.598992,193.706843 261.621238,195.717071 259.270015,196.913148 C256.734782,197.847839 255.256704,198 252.187737,198 C241.579788,198 236.275893,192.725748 236.275893,182.177086 L236.275887,157.14227 L233.573894,157.14227 Z M269.800848,189.943262 L269.800848,154.982776 C269.800848,149.611618 271.902413,146.926039 276.105541,146.926039 C280.30867,146.926039 282.410235,149.611618 282.410235,154.982776 L282.410235,189.943262 C282.410235,195.314421 280.30867,198 276.105541,198 C271.902413,198 269.800848,195.314421 269.800848,189.943262 Z M271.65257,137.971011 C270.418079,136.796064 269.800842,135.25397 269.800842,133.344681 C269.800842,131.435392 270.425427,129.900641 271.674615,128.740381 C272.923803,127.580121 274.400761,127 276.105536,127 C277.81031,127 279.287268,127.580121 280.536456,128.740381 C281.785644,129.900641 282.410229,131.435392 282.410229,133.344681 C282.410229,135.25397 281.785644,136.788721 280.536456,137.948981 C279.287268,139.109241 277.81031,139.689362 276.105536,139.689362 C274.400761,139.689362 272.916455,139.116584 271.65257,137.971011 Z M319.218268,145.631206 L319.257005,145.631206 C333.616408,145.631206 345.257005,157.271802 345.257005,171.631206 L345.257005,172 C345.257005,186.359403 333.616408,198 319.257005,198 L319.218268,198 C304.858864,198 293.218268,186.359403 293.218268,172 L293.218268,171.631206 C293.218268,157.271802 304.858864,145.631206 319.218268,145.631206 Z M309.130125,182.277231 C311.998941,184.881015 315.368082,186.182887 319.237648,186.182887 C323.107215,186.182887 326.459677,184.864324 329.295135,182.227159 C332.130593,179.589994 333.548301,176.101643 333.548301,171.762004 C333.548301,167.422365 332.130593,163.934015 329.295135,161.296849 C326.459677,158.659684 323.107215,157.341121 319.237648,157.341121 C315.368082,157.341121 312.01562,158.659684 309.180162,161.296849 C306.344704,163.934015 304.926996,167.422365 304.926996,171.762004 C304.926996,176.101643 306.328025,179.606684 309.130125,182.277231 Z M403,163.756044 L403,189.943262 C403,195.314421 400.898436,198 396.695307,198 C392.492178,198 390.390614,195.314421 390.390614,189.943262 L390.390614,167.956493 C390.390614,160.879543 387.021473,157.341121 380.28309,157.341121 C376.947257,157.341121 374.195236,158.642993 372.026944,161.246777 C369.858653,163.85056 368.774523,167.222076 368.774523,171.361424 L368.774523,189.943262 C368.774523,195.314421 366.672959,198 362.46983,198 C358.266701,198 356.165137,195.314421 356.165137,189.943262 L356.165137,154.982776 C356.165137,149.611618 358.266701,146.926039 362.46983,146.926039 C366.672959,146.926039 368.774523,149.611618 368.774523,154.982776 C372.844239,148.661854 378.448355,145.524008 385.587038,145.524008 C390.857654,145.524008 395.07742,147.092931 398.246462,150.230824 C401.415503,153.368717 403,158.548477 403,163.756044 Z" id="omnition-rounded" fill="#8F2CFA"></path>
        <mask id="mask-2" fill="white">
            <use xlink:href="#path-1"></use>
        </mask>
        <use id="logo" fill="#8F2CFA" xlink:href="#path-1"></use>
    </g>
</svg>