<?xml version="1.0" encoding="utf-8"?>
<!-- Generator: Adobe Illustrator 15.0.2, SVG Export Plug-In . SVG Version: 6.00 Build 0)  -->
<!DOCTYPE svg PUBLIC "-//W3C//DTD SVG 1.1//EN" "http://www.w3.org/Graphics/SVG/1.1/DTD/svg11.dtd">
<svg version="1.1" id="Layer_1" xmlns="http://www.w3.org/2000/svg" xmlns:xlink="http://www.w3.org/1999/xlink" x="0px" y="0px"
	 width="443.52px" height="337.68px" viewBox="12.24 155.16 443.52 337.68" enable-background="new 12.24 155.16 443.52 337.68"
	 xml:space="preserve">
<title>logo-signalfx</title>
<g>
	<path d="M51.329,262.084c1.098,0.653,2.372,0.575,3.568,0.823c6.534,1.346,12.414,4.012,17.301,8.723
		c0.373,0.36,0.693,0.785,1.104,1.262l-9.376,9.095c-0.339-0.386-0.653-0.713-0.928-1.052c-3.044-3.621-7.236-6.09-11.879-6.998
		c-4.945-1.133-10.133-0.47-14.636,1.869c-5.939,3.117-8.592,9.147-6.933,15.597c0.706,2.477,2.251,4.632,4.372,6.096
		c2.659,1.96,5.75,3.071,8.847,4.136c4.992,1.712,10.029,3.312,14.943,5.228c5.619,2.182,10.297,5.651,13.453,10.951
		c1.342,2.251,2.212,4.752,2.555,7.351c0.751,5.468,0.444,10.839-1.81,15.968c-2.901,6.6-7.841,11.107-14.479,13.722
		c-7.28,2.883-15.242,3.586-22.915,2.026c-7.05-1.308-13.414-4.078-18.732-8.992c-1.215-1.123-2.3-2.404-3.535-3.711l10.376-8.788
		c0.327,0.419,0.653,0.837,0.966,1.234c6.142,7.417,13.892,10.651,23.522,8.997c4.574-0.782,8.317-2.874,11.022-6.689
		c3.995-5.687,2.958-13.485-2.385-17.929c-2.205-1.772-4.707-3.137-7.39-4.032c-4.914-1.725-9.886-3.267-14.793-5.018
		c-3.814-1.288-7.344-3.3-10.395-5.927c-4.449-3.777-7.132-9.231-7.41-15.061c-0.221-2.743-0.085-5.504,0.405-8.213
		c1.248-6.253,4.737-10.99,9.801-14.636c3.976-2.767,8.542-4.57,13.336-5.266c0.921-0.157,1.96,0,2.75-0.765h1.614
		c0.215,0.693,0.777,0.301,1.189,0.379c1.229,0,2.463,0.039,3.692,0c0.261,0,0.509-0.248,0.764-0.386L51.329,262.084z"/>
	<path d="M455.751,355.225c-4.633,0-9.272-0.045-13.897,0.138c-2.346,0.091-3.92-0.529-5.358-2.516
		c-4.417-5.991-9.147-11.762-13.721-17.642c-0.178-0.28-0.33-0.576-0.458-0.882c-2.247,2.895-4.247,5.481-6.246,8.062
		c-3.006,3.868-6.03,7.717-8.99,11.624c-0.589,0.885-1.606,1.384-2.666,1.307c-5.031-0.078-10.069-0.033-15.492-0.033
		c4.143-5.508,8.305-10.604,12.355-15.785c4.052-5.182,8.194-10.455,12.355-15.721l-23.601-29.403
		c0.653-0.052,1.131-0.117,1.614-0.117c4.77,0,9.546,0.071,14.315-0.052c1.326-0.107,2.604,0.522,3.326,1.64
		c6.8,8.921,13.625,17.809,20.478,26.665c0.302,0.33,0.629,0.633,0.979,0.909l-0.045-0.039c0.265,0.524,0.563,1.03,0.895,1.516
		c7.614,9.618,15.237,19.229,22.869,28.834c0.396,0.408,0.834,0.773,1.307,1.092L455.751,355.225z"/>
	<path d="M323.498,262.084c0.033,0.131,0.033,0.268,0,0.399l-12.479,0.033v-0.432H323.498z"/>
	<path d="M49.317,262.084c-0.255,0.138-0.503,0.379-0.764,0.386c-1.229,0.033-2.463,0-3.692,0c0.013-0.126,0.013-0.253,0-0.379
		L49.317,262.084z"/>
	<path d="M44.88,262.084c0.013,0.126,0.013,0.253,0,0.379c-0.411-0.079-0.974,0.313-1.189-0.379H44.88z"/>
	<path d="M157.44,346.148c-6.018,7.41-13.773,9.945-22.653,9.685c-6.267-0.126-12.334-2.223-17.341-5.991
		c-5.039-3.772-8.693-9.101-10.396-15.159c-2.476-8.403-2.123-16.753,1.607-24.731c4.79-10.219,12.95-15.962,24.175-17.171
		c6.171-0.772,12.425,0.506,17.798,3.639c1.373,0.834,2.656,1.809,3.829,2.908c1.13,1.026,2.078,2.248,3.332,3.633
		c0-1.072,0.033-1.96,0.039-2.803v-5.75h12.415v2.006c0,18.294,0,36.57,0,54.825c0.06,4.763-0.58,9.507-1.901,14.082
		c-2.105,7.455-7.319,13.646-14.309,16.987c-4.541,2.181-9.49,3.379-14.525,3.515c-6.109,0.346-12.227-0.488-18.021-2.456
		c-5.222-1.727-10.063-4.444-14.257-8.004c-0.302-0.21-0.621-0.394-0.954-0.549c2.868-3.489,5.495-6.697,8.2-9.997
		c0.312,0.229,0.61,0.473,0.895,0.731c8.246,8.207,18.105,10.918,29.298,8.116c5.691-1.425,9.526-5.286,11.408-10.918
		c0.839-2.485,1.297-5.083,1.359-7.704C157.492,352.199,157.44,349.317,157.44,346.148z M118.347,323.934
		c0.301,2.117,0.366,4.299,0.954,6.338c2.392,8.258,7.697,13.485,16.439,14.603c6.331,0.83,12.009-0.83,16.59-5.357
		c4.952-4.9,6.586-11.03,5.926-17.851c-0.856-8.854-7.063-16.021-15.27-17.844c-7.488-1.653-14.113,0.059-19.393,5.822
		c-3.672,4.005-4.959,8.932-5.247,14.27V323.934z"/>
	<path d="M350.092,315.153v40.033h-13.18v-90.631h56.14v11.682c-2.836,0-5.691,0-8.554,0h-34.315v27.267h39.726v11.434l-0.117,0.098
		c-0.052,0.039-0.104,0.111-0.156,0.111L350.092,315.153z"/>
	<path d="M299.369,355.231h-11.232c-0.803-2.411-0.889-5.018-1.26-7.841c-0.444,0.49-0.733,0.784-1.001,1.098
		c-4.179,5.014-10.272,8.038-16.792,8.337c-4.685,0.288-9.284-0.183-13.584-2.116c-8.121-3.646-11.898-10.35-10.897-19.51
		c0.653-6.228,4.409-10.167,9.65-12.951c3.62-1.905,7.561-3.127,11.623-3.607c4.985-0.653,10.017-0.934,15.027-1.307
		c1.784-0.144,3.587-0.144,5.358-0.209c0.935-8.356-3.888-12.852-10.813-13.773c-7.33-0.98-14.055,0.712-20.764,6.841l-6.757-8.161
		c1.124-1.227,2.407-2.297,3.815-3.182c5.181-3.511,11.192-5.6,17.433-6.057c4.574-0.359,9.114-0.281,13.564,1.091
		c8.625,2.666,13.806,8.409,15.381,17.282c0.397,2.448,0.596,4.923,0.594,7.403c0.079,9.003,0,18.014,0.093,27.011
		C298.84,348.775,299.173,351.964,299.369,355.231z M286.393,326.633c-5.431-0.259-10.873,0.037-16.243,0.882
		c-3.196,0.399-6.261,1.516-8.965,3.267c-2.691,1.673-4.149,4.771-3.724,7.912c0.319,3.418,2.273,5.627,5.357,6.881
		c3.325,1.359,6.763,1.379,10.265,0.856c4.876-0.587,9.129-3.588,11.317-7.985C286.373,334.747,286.621,330.802,286.393,326.633z"/>
	<path d="M236.362,355.252h-12.695v-2.033c0-10.35,0-20.694,0-31.036c0-3.358-0.118-6.717-1.117-9.964
		c-1.961-6.331-6.58-9.076-12.944-8.821c-7.292,0.288-12.094,5.43-13.963,11.415c-0.804,2.703-1.189,5.512-1.144,8.331
		c0,10.019,0,20.036,0,30.056v2.058h-12.578c-0.294-20.254,0.353-40.477-0.51-60.836h12.003c0.091,1.418,0.222,2.869,0.261,4.312
		s0,2.927,0,4.574c0.392-0.203,0.621-0.242,0.699-0.373c3.763-5.939,9.258-9.219,16.119-10.069c5.71-0.712,11.212,0.104,16.146,3.45
		c4.198,2.848,7.216,7.126,8.494,12.035c0.835,2.977,1.244,6.056,1.216,9.147c0,12.157,0,24.317,0,36.479L236.362,355.252z"/>
	<path d="M311.019,262.516l12.479-0.033c0.033,0.601,0.085,1.202,0.085,1.803c0,29.686,0,59.367,0,89.044v1.882h-12.479
		c-0.067-0.411-0.111-0.826-0.131-1.241c0-30.217,0-60.435,0-90.651C310.967,263.051,310.999,262.783,311.019,262.516z"/>
	<path d="M96.354,294.355v60.883H83.77v-60.883H96.354z"/>
	<path fill="#59A200" d="M430.752,323.418c0-6.645,0-13.284,0-19.922c-0.044-1.195,0.367-2.363,1.15-3.267
		c1.366-1.646,2.652-3.358,3.92-5.077c0.362-0.567,1-0.897,1.673-0.862c5.364,0.032,10.729,0,16.093,0
		c0.258,0.037,0.511,0.096,0.758,0.176c-1.443,1.81-2.797,3.535-4.168,5.227c-5.929,7.357-11.861,14.706-17.799,22.045
		c-0.523,0.581-1.082,1.129-1.672,1.641L430.752,323.418z"/>
	<path d="M96.335,287.449H83.77v-12.415h12.565V287.449z"/>
</g>
<image overflow="visible" width="108" height="72" xlink:href="23E8544A.png"  transform="matrix(1 0 0 1 530.5 178.5)">
</image>
</svg>
