<?xml version="1.0" encoding="utf-8"?>
<!-- Generator: Adobe Illustrator 15.0.2, SVG Export Plug-In . SVG Version: 6.00 Build 0)  -->
<!DOCTYPE svg PUBLIC "-//W3C//DTD SVG 1.1//EN" "http://www.w3.org/Graphics/SVG/1.1/DTD/svg11.dtd">
<svg version="1.1" id="Layer_1" xmlns="http://www.w3.org/2000/svg" xmlns:xlink="http://www.w3.org/1999/xlink" x="0px" y="0px"
	 width="443.52px" height="337.68px" viewBox="-109.531 -125.874 443.52 337.68"
	 enable-background="new -109.531 -125.874 443.52 337.68" xml:space="preserve">
<g>
	<path fill="#6F6F6F" d="M40.637,27.785c-1.659,0.621-3.32,1.241-4.783,2.055c-1.548-7.686-18.278-8.18-18.117,1.021
		c0.148,8.228,18.35,8.414,22.9,16.065c3.456,5.808,1.064,14.28-3.417,17.433c-1.805,1.271-4.625,3.234-10.936,3.076
		c-7.568-0.19-13.65-5.277-16.065-12.305c1.474-1.151,3.464-1.777,5.468-2.393c0.087,9.334,18.304,12.687,20.509,3.418
		c3.661-15.375-24.686-9.097-24.267-25.636C12.304,15.521,37.317,14.322,40.637,27.785z"/>
	<path fill="#6F6F6F" d="M96.347,66.413c-1.821,0-3.647,0-5.466,0c0-1.481,0-2.968,0-4.444c-2.872,2.517-5.263,5.222-10.254,5.467
		c-10.316,0.51-17.038-10.377-10.256-17.773c4.38-4.774,13.169-5.41,20.512-2.05c1.548-10.171-13.626-11.842-16.407-4.44
		c-1.698-0.697-3.195-1.592-5.126-2.054c2.832-10.246,20.01-9.729,24.949-2.392C98.907,45.564,95.056,56.345,96.347,66.413z
		 M74.131,58.547c4.483,6.856,17.435,2.377,16.751-6.154C85.721,48.924,72.381,49.004,74.131,58.547z"/>
	<path fill="#6F6F6F" d="M305.873,51.029c-7.868,0.794-17.201,0.117-25.638,0.343c-1.48,10.76,16.123,14.618,19.144,5.127
		c1.631,0.754,3.326,1.457,5.127,2.048c-2.477,9.824-18.37,11.251-25.294,4.445c-9.549-9.386-4.276-31.335,12.987-29.735
		C301.089,34.083,305.348,40.433,305.873,51.029z M280.578,46.585c6.269,0,12.533,0,18.801,0
		C299.339,35.417,280.946,36.628,280.578,46.585z"/>
	<path fill="#6F6F6F" d="M236.486,34.283c0,10.707,0,21.416,0,32.13c-1.936,0-3.875,0-5.81,0c0-10.714,0-21.423,0-32.13
		C232.611,34.283,234.551,34.283,236.486,34.283z"/>
	<path fill="#6F6F6F" d="M241.273,34.283c2.049,0,4.097,0,6.153,0c3.048,8.342,6.48,16.303,9.224,24.949
		c4.33-7.408,6.575-16.895,10.251-24.949c2.056,0,4.104,0,6.155,0c-4.39,10.646-8.865,21.217-12.988,32.13c-2.054,0-4.102,0-6.152,0
		C250.009,55.394,245.281,45.196,241.273,34.283z"/>
	<path fill="#6F6F6F" d="M316.354,34.225h-5.525v32.111h5.982V46.885c0,0,1.845-9.322,11.396-7.021l2.417-5.867
		c0,0-8.978-2.532-14.155,5.407L316.354,34.225z"/>
	<path fill="#6F6F6F" d="M211.434,34.225h-5.522v32.111h5.987V46.885c0,0,1.84-9.322,11.395-7.021l2.417-5.867
		c0,0-8.976-2.532-14.159,5.407L211.434,34.225z"/>
	<path fill="#6F6F6F" d="M193.139,49.998c0,6.579-4.645,11.919-10.372,11.919c-5.725,0-10.366-5.34-10.366-11.919
		c0-6.586,4.642-11.92,10.366-11.92C188.494,38.078,193.139,43.412,193.139,49.998z M193.032,61.914v4.19h5.742V19.038h-5.812
		v19.325c-2.789-3.472-6.805-5.649-11.269-5.649c-8.424,0-15.253,7.768-15.253,17.341c0,9.576,6.829,17.344,15.253,17.344
		c4.496,0,8.536-2.21,11.33-5.724L193.032,61.914z"/>
	<circle fill="#6F6F6F" cx="233.584" cy="23.306" r="4.185"/>
	<polygon fill="#6F6F6F" points="142.751,48.332 156.586,34.254 164.189,34.254 151.852,46.965 165.062,66.286 157.708,66.286 
		147.362,51.327 142.624,56.188 142.624,66.413 136.768,66.413 136.768,19.422 142.624,19.422 142.624,47.865 	"/>
	<path fill="#6F6F6F" d="M125.855,44.471c-1.762-3.644-5.163-6.109-9.065-6.109c-5.713,0-10.348,5.282-10.348,11.799
		c0,6.524,4.635,11.806,10.348,11.806c3.93,0,7.347-2.496,9.101-6.183l5.394,2.556c-2.779,5.419-8.227,9.097-14.497,9.097
		c-9.083,0-16.451-7.733-16.451-17.275c0-9.537,7.368-17.269,16.451-17.269c6.247,0,11.683,3.653,14.467,9.041L125.855,44.471z"/>
	<path fill="#6F6F6F" d="M49.884,24.693v9.747h-5.849v5.479h5.727v17.052c0,0-0.37,13.157,15.103,9.383l-1.947-4.995
		c0,0-7.065,2.434-7.065-3.896c0-6.334,0-17.544,0-17.544h7.796V34.56h-7.674v-9.866H49.884L49.884,24.693z"/>
	<polygon fill="#009245" points="-60.206,39.715 -83.292,82.812 -37.085,82.804 	"/>
	<polygon fill="#006837" points="-83.301,82.804 -106.167,42.994 -60.209,42.994 	"/>
	<polygon fill="#39B54A" points="-60.087,43.008 -106.167,43.008 -83.102,3.12 -60.087,3.12 -36.969,3.12 	"/>
	<polygon fill="#8CC63F" points="-36.969,3.12 -13.733,42.96 -37.085,82.804 -60.087,43.008 	"/>
</g>
</svg>
