<?xml version="1.0" encoding="UTF-8"?>
<svg width="131.87433mm" height="32.457283mm" version="1.1" viewBox="0 0 131.87433 32.457283" xmlns="http://www.w3.org/2000/svg"><title>wavefront by VMware</title><g transform="translate(-284.82474,-295.89041)"><g transform="matrix(.35277777 0 0 -.35277777 284.82474 328.34769)"><g transform="scale(.1)"><g fill="#6a6a6f"><path d="m2599.41 50.0781-77.05 214.5199c-0.92 2.882-2.35 6.738-2.35 10.3 0 9.137 7.78 17.969 19.13 17.969 9.78 0 16.13-6.308 19.14-15.59l63.67-184.7223 64.36 185.3123c2.82 8.692 8.65 15 18.43 15h2c10.44 0 16.83-6.308 19.7-15l63.67-185.3123 64.84 185.6993c2.48 7.937 7.79 14.613 18.18 14.613 10.79 0 18.48-8.281 18.48-17.672 0-3.23-1.48-7.336-2.31-10.238l-77.43-214.8789c-4.06-11.0468-11.81-16.9922-20.71-16.9922h-1.36c-9.91 0-17.25 5.9454-20.75 16.9922l-63.26 182.2969-63.67-182.2969c-3.47-11.0468-10.82-16.9922-20.65-16.9922h-1.05c-9.3 0-17.05 5.9454-21.01 16.9922"/><path d="m3160.54 273.855c0 10.278 8.36 19.239 18.66 19.239 10.97 0 19.17-8.328 19.17-19.239v-43.546c18.67 42.363 60.06 62.148 87.42 62.148 11.4 0 18.74-8.324 18.74-19.031 0-10.211-6.91-17.606-16.74-19.188-49-5.8-89.42-42.761-89.42-115.945v-86.1289c0-10.4102-7.9-19.0782-18.56-19.0782-10.91 0-19.27 8.3516-19.27 19.0782v221.6909"/><path d="m3499.45 178.418c-3.78 45.762-29.75 85.566-79.24 85.566-43.44 0-76.11-36.398-80.85-85.566zm-73.45-145.3321c-68.41 0-124.25 52.961-124.25 130.7691v0.95c0 72.398 50.54 130.894 119.41 130.894 73.61 0 115.46-60.801 115.46-127.363 0-10.16-8.21-17.633-17.29-17.633h-179.97c5.27-54.3983 43.2-85.0311 87.59-85.0311 30.84 0 53.37 12.1328 71.67 29.1914 2.92 2.4375 6.23 4.3633 10.61 4.3633 9.08 0 16.45-7.418 16.45-16.1836 0-4.2383-2.01-8.7149-5.79-11.9141-23.71-23.0703-51.58-38.043-93.89-38.043"/><path d="m3079.06 131.395v24.601c-18.67 5.359-43.67 10.754-74.5 10.754-47.46 0-73.89-20.602-73.89-52.348v-1.105c0-31.6837 29.49-50.4064 63.71-50.4064 46.4 0 84.68 28.4336 84.68 68.5044m-186.67-19.524v0.996c0 53.41 44.05 81.754 108.1 81.754 32.51 0 55.6-4.473 78.08-10.762v8.942c0 45.359-27.95 69.008-75.5 69.008-25.49 0-40.13-3.278-58.7-11.598-2.57-0.914-5.11-1.449-6.91-1.449-8.8 0-16.8 7.265-16.8 16.058 0 7.942 3.39 12.66 10.39 15.797 24.84 10.887 43.67 14.363 75.9 14.363 35.75 0 63.31-9.152 81.92-27.859 17.09-17.113 25.88-41.762 25.88-74v-139.7343c0-10.6328-7.69-18.6289-18.21-18.6289-10.75 0-17.97 7.9961-17.97 17.6641v24.3203c-17.57-23.1719-47.07-43.6563-91.54-43.6563-47.01 0-94.64 26.8125-94.64 78.7851"/><path d="m1923.51 275.324c-8.07 17.953-28.16 26.047-46.99 17.629-18.88-8.367-25.72-29.351-17.32-47.199l79.07-171.6524c12.39-26.9024 25.43-41.0157 50.05-41.0157 26.14 0 37.75 15.3321 50.19 41.0157 0 0 68.88 150.0784 69.48 151.6404 0.71 1.504 3.01 6.406 9.97 6.289 5.83 0 11.04-4.715 11.04-11.093v-146.7192c0-22.4844 12.39-41.1329 36.53-41.1329s37.23 18.6485 37.23 41.1329v120.1912c0 23.129 16.48 38.051 39.14 38.051 22.65 0 37.7-15.547 37.7-38.051v-120.1912c0-22.4844 12.57-41.1329 36.63-41.1329 24.22 0 37.14 18.6485 37.14 41.1329v120.1912c0 23.129 16.64 38.051 39.39 38.051 22.48 0 37.53-15.547 37.53-38.051v-120.1912c0-22.4844 12.52-41.1329 36.7-41.1329 24.14 0 37.23 18.6485 37.23 41.1329v136.6912c0 50.164-40.23 85.434-88.98 85.434-48.63 0-78.88-33.699-78.88-33.699-16.18 21.027-38.62 33.601-76.28 33.601-39.66 0-74.54-33.601-74.54-33.601-16 21.027-43.8 33.601-66.45 33.601-35.13 0-63.23-15.387-80.24-54.383l-50.53-119.082-64.81 152.543"/><path d="m3592.26 263.371v0.113c0 13.868-10.67 25.254-24.88 25.254-14.15 0-24.97-11.57-24.97-25.367v-0.117c0-13.742 10.75-25.094 24.97-25.094 14.14 0 24.88 11.578 24.88 25.211m-55.64-0.117v0.117c0 16.875 13.59 31.149 30.76 31.149 17.39 0 30.74-14.133 30.74-30.918v-0.231c0-16.723-13.66-30.891-30.74-30.891-17.35 0-30.76 13.879-30.76 30.774"/><path d="m3568.95 264.48c3.07 0 4.95 1.661 4.95 4.184v0.145c0 2.793-1.95 4.336-5.18 4.336h-6.65v-8.665zm-13.31 11.25c0 1.75 1.33 3.313 3.27 3.313h10.25c3.92 0 6.87-1.176 8.7-3.09 1.82-1.668 2.7-3.988 2.7-6.894 0-4.762-2.36-7.598-6.05-9.024l4.65-5.582c0.66-0.996 1.06-1.586 1.06-2.539 0-1.769-1.62-2.973-3.18-2.973-1.49 0-2.39 0.68-3.14 1.696l-6.34 7.894h-5.49v-6.371c0-1.652-1.21-3.219-3.16-3.219-1.94 0-3.27 1.567-3.27 3.219v23.57"/><path d="m1588.27 116.023v0.575c0 33.746-23.18 55.238-50.28 55.238-26.56 0-51.66-22.434-51.66-55v-0.481c0-33.1948 25.1-55.3198 51.66-55.3198 27.63 0 50.28 20.4687 50.28 54.9878m-101.11-43.6128v-27.4375h-21.3v201.7933h21.3v-87.571c11.62 17.035 28.44 31.703 54.71 31.703 34.23 0 68.27-27.043 68.27-74.062v-0.481c0-46.7144-33.75-74.3745-68.27-74.3745-26.53 0-43.7 14.3554-54.71 30.4297"/><path d="m1749.35 187.871h22.66l-59.98-147.5312c-12.12-29.6093-25.95-40.3398-47.52-40.3398-11.88 0-20.71 2.42188-30.4 7.14453l7.22 16.89067c6.91-3.6368 13.22-5.25 22.39-5.25 12.7 0 20.66 6.5859 29.23 26.7773l-64.88 142.3085h23.44l52.01-119.0546 45.83 119.0546"/></g><g fill="#292827"><path d="m665.523 822.332h74.817l65.75-214.941 71.187 215.847h59.86l71.193-215.847 65.75 214.941h73.01l-108.37-319.687h-60.771l-71.648 207.683-71.641-207.683h-60.765l-108.372 319.687"/><path d="m1320.75 637.77-42.16 102.945-42.18-102.945zm-73.45 186.832h64.39l136.03-319.688h-73l-29.02 71.195h-134.23l-29.02-71.195h-71.19l136.04 319.688"/><path d="m1405.09 822.332h77.09l82.98-223.551 82.98 223.551h75.28l-128.33-319.687h-61.68l-128.32 319.687"/><path d="m1758.3 822.332h239.41v-62.125h-170.04v-64.394h149.64v-62.114h-149.64v-66.664h172.31v-62.121h-241.68v317.418"/><path d="m2055.53 822.332h241.68v-63.488h-171.86v-67.555h151.46v-63.484h-151.46v-122.891h-69.82v317.418"/><path d="m2480.77 668.156c34.01 0 53.5 18.145 53.5 44.899v0.906c0 29.926-20.85 45.336-54.86 45.336h-69.38v-91.141zm-140.57 154.176h145.1c40.36 0 71.65-11.34 92.51-32.195 17.68-17.68 27.21-42.621 27.21-72.547v-0.91c0-51.25-27.66-83.434-68.02-98.403l77.53-113.363h-81.61l-68.03 101.566h-54.86v-101.566h-69.83v317.418"/><path d="m2903.06 662.723v0.906c0 54.414-39.9 99.758-96.13 99.758s-95.22-44.442-95.22-98.864v-0.894c0-54.426 39.9-99.766 96.12-99.766 56.23 0 95.23 44.434 95.23 98.86zm-264.36 0v0.906c0 90.23 71.19 164.144 169.13 164.144 97.95 0 168.25-73.011 168.25-163.25v-0.894c0-90.238-71.2-164.16-169.15-164.16-97.94 0-168.23 73.011-168.23 163.254"/><path d="m3017.79 822.332h64.38l148.74-195.437v195.437h68.93v-317.418h-59.41l-153.72 201.785v-201.785h-68.92v317.418"/><path d="m3433.19 757.941h-96.59v64.391h263v-64.391h-96.57v-253.027h-69.84v253.027"/></g><g fill="#51ace4"><path d="m121.688 416.012-109.2778-27.516c-6.30082-1.586-12.4102 3.176-12.4102 9.676v108.652c0 4.571 3.10547 8.559 7.53906 9.672l109.27694 27.52c6.301 1.586 12.411-3.18 12.411-9.672v-108.66c0-4.571-3.106-8.555-7.539-9.672"/><path d="m121.688 580.348-109.2778-27.52c-6.30082-1.586-12.4102 3.18-12.4102 9.672v237.887c0 4.57 3.10547 8.554 7.53906 9.672l109.27694 27.515c6.301 1.586 12.411-3.172 12.411-9.672v-237.882c0-4.571-3.106-8.559-7.539-9.672"/><path d="m286.023 421.711-109.277-27.52c-6.301-1.586-12.414 3.18-12.414 9.672v143.696c0 4.57 3.106 8.554 7.539 9.675l109.277 27.52c6.301 1.586 12.415-3.18 12.415-9.676v-143.695c0-4.57-3.106-8.559-7.54-9.672"/><path d="m286.023 621.145-109.277-27.52c-6.301-1.59-12.414 3.18-12.414 9.672v202.781c0 4.574 3.106 8.559 7.539 9.676l109.277 27.519c6.301 1.586 12.415-3.179 12.415-9.671v-202.786c0-4.57-3.106-8.558-7.54-9.671"/><path d="m450.352 498.18-109.278-27.516c-6.297-1.586-12.406 3.176-12.406 9.676v108.652c0 4.571 3.105 8.559 7.539 9.672l109.277 27.52c6.301 1.586 12.414-3.18 12.414-9.672v-108.66c0-4.571-3.113-8.555-7.546-9.672"/><path d="m450.352 662.516-109.278-27.52c-6.297-1.586-12.406 3.18-12.406 9.672v237.883c0 4.574 3.105 8.558 7.539 9.676l109.277 27.515c6.301 1.586 12.414-3.172 12.414-9.672v-237.882c0-4.571-3.113-8.559-7.546-9.672"/></g><path d="m3649.85 762.129v50.289h-18.79v6.723h45.19v-6.723h-18.87v-50.289h-7.53" fill="#211d1d"/><path d="m3683.75 762.129v57.012h11.36l13.5-40.364c1.25-3.761 2.14-6.574 2.72-8.437 0.64 2.07 1.66 5.113 3.03 9.133l13.65 39.668h10.16v-57.012h-7.28v47.723l-16.56-47.723h-6.81l-16.49 48.535v-48.535h-7.28" fill="#211d1d"/></g></g></g></svg>
