<?xml version="1.0" encoding="utf-8"?>
<!-- Generator: Adobe Illustrator 15.0.2, SVG Export Plug-In . SVG Version: 6.00 Build 0)  -->
<!DOCTYPE svg PUBLIC "-//W3C//DTD SVG 1.1//EN" "http://www.w3.org/Graphics/SVG/1.1/DTD/svg11.dtd">
<svg version="1.1" id="Layer_1" xmlns="http://www.w3.org/2000/svg" xmlns:xlink="http://www.w3.org/1999/xlink" x="0px" y="0px"
	 width="443.52px" height="337.68px" viewBox="0 0 443.52 337.68" enable-background="new 0 0 443.52 337.68" xml:space="preserve">
<polyline fill="none" stroke="#000000" stroke-width="4.8168" stroke-miterlimit="10" points="74.352,254.027 99.72,254.027 
	73.105,293.115 99.72,293.115 "/>
<line fill="none" stroke="#000000" stroke-width="4.8168" stroke-miterlimit="10" x1="137.145" y1="253.194" x2="137.145" y2="294.363"/>
<line fill="none" stroke="#000000" stroke-width="4.8168" stroke-miterlimit="10" x1="178.923" y1="294.363" x2="178.923" y2="253.194"/>
<line fill="none" stroke="#000000" stroke-width="4.8168" stroke-miterlimit="10" x1="232.635" y1="253.194" x2="232.635" y2="294.363"/>
<line fill="none" stroke="#000000" stroke-width="4.8168" stroke-miterlimit="10" x1="295.302" y1="253.194" x2="295.302" y2="294.363"/>
<polyline fill="none" stroke="#000000" stroke-width="4.8168" stroke-miterlimit="10" points="369.45,252.775 369.45,292.361 
	369.374,292.361 336.418,254.777 336.342,254.777 336.342,294.363 "/>
<line fill="none" stroke="#000000" stroke-width="4.8168" stroke-miterlimit="10" x1="257.844" y1="253.023" x2="232.72" y2="274.666"/>
<line fill="none" stroke="#000000" stroke-width="4.8168" stroke-miterlimit="10" x1="257.952" y1="294.46" x2="235.876" y2="271.838"/>
<path fill="none" stroke="#000000" stroke-width="4.8168" stroke-miterlimit="10" d="M178.969,254.996
	c14.466,0,17.25,6.115,17.737,9.171l0.061,3.028c-0.283,2.847-2.56,9.631-17.797,9.631"/>
<path d="M256.45,87.396c0,19.76-16.02,35.774-35.775,35.774c-19.759,0-35.776-16.014-35.776-35.774
	c0-19.761,16.018-35.775,35.776-35.775C240.431,51.62,256.45,67.635,256.45,87.396z M220.675,42.677
	c-24.697,0-44.72,20.017-44.72,44.719c0,24.7,20.022,44.717,44.72,44.717s44.718-20.017,44.718-44.717
	C265.393,62.694,245.372,42.677,220.675,42.677z"/>
<path d="M7.284,184.936l0.841-0.975c23.885-20.734,55.378-26.248,55.378-26.248c-10.76,18.635-1.837,24.146-1.837,24.146
	s310.217,0,334.362,0c24.143,0,36.208-6.302,36.208-6.302s3.319,3.858,3.593,9.521l-0.062,0.597
	c-0.521,5.218-3.531,8.718-3.531,8.718s-12.065-6.302-36.208-6.302c-24.146,0-334.362,0-334.362,0s-8.923,5.512,1.837,24.147
	c0,0-31.493-5.514-55.378-26.249L7.284,184.936z"/>
<g>
	<polyline points="235.773,126.15 235.773,133.23 233.165,133.23 233.165,135.467 223.477,135.467 	"/>
	<polyline points="205.571,126.15 205.571,133.23 208.18,133.23 208.18,135.467 217.869,135.467 	"/>
</g>
<rect x="212.777" y="131.8" width="15.794" height="84.481"/>
<rect x="217.042" y="214.734" width="7.263" height="13.362"/>
</svg>
