<?xml version="1.0" encoding="utf-8"?>
<!-- Generator: Adobe Illustrator 15.0.2, SVG Export Plug-In . SVG Version: 6.00 Build 0)  -->
<!DOCTYPE svg PUBLIC "-//W3C//DTD SVG 1.1//EN" "http://www.w3.org/Graphics/SVG/1.1/DTD/svg11.dtd">
<svg version="1.1" id="Layer_1" xmlns="http://www.w3.org/2000/svg" xmlns:xlink="http://www.w3.org/1999/xlink" x="0px" y="0px"
	 width="443.52px" height="337.68px" viewBox="0 0 443.52 337.68" enable-background="new 0 0 443.52 337.68" xml:space="preserve">
<g>
	<path fill="#F25022" d="M0,121.484h45.055c-0.002,15.018,0,30.037-0.002,45.055c-15.016,0-30.035,0-45.053,0V121.484L0,121.484z"/>
	<path fill="#FEFEFE" d="M45.055,121.484h4.601c0,15.018-0.003,30.037,0.002,45.055c15.016,0,30.035-0.002,45.05,0
		c0.005-15.019,0.002-30.037,0.002-45.055H443.52v35.041c-3.215,0.011-6.43-0.024-9.642,0.021
		c-0.073-4.067-0.008-8.134-0.035-12.199c-3.215,0.969-6.41,2-9.642,2.919c-0.078,3.085-0.005,6.173-0.04,9.258
		c-4.752-0.003-9.504,0.005-14.256-0.006c0.06-2.43-0.168-4.879,0.182-7.295c0.289-1.905,1.394-3.81,3.25-4.546
		c2.341-0.961,4.957-0.322,7.182,0.658c-0.014-2.785,0.021-5.569-0.02-8.351c-4.681-1.288-10.047-1.037-14.201,1.667
		c-2.679,1.715-4.622,4.459-5.496,7.501c-1.033,3.369-0.506,6.927-0.671,10.386c-2.254-0.016-4.506-0.038-6.754,0.014
		c0.024,2.603,0.014,5.207,0.005,7.807c2.26,0.046,4.522-0.008,6.782,0.035c-0.02,10.954-0.006,21.905-0.006,32.859
		c3.247,0,6.497,0,9.744,0c0-10.956-0.003-21.913,0.003-32.87c4.752-0.008,9.507-0.005,14.261-0.002
		c0.014,6.984-0.014,13.965,0.011,20.948c0.043,3.252,0.599,6.729,2.752,9.298c1.865,2.272,4.825,3.312,7.683,3.522
		c3.012,0.214,6.124-0.153,8.908-1.363v19.41H94.711c0-15.019,0-30.037,0-45.056c-15.018,0-30.037-0.002-45.053,0.003
		c-0.005,15.016,0,30.034-0.002,45.053h-4.601c0-15.019,0.003-30.034,0-45.053c-15.019-0.008-30.037,0-45.055-0.005v-4.598
		c15.018,0,30.037,0,45.053,0C45.055,151.521,45.053,136.502,45.055,121.484L45.055,121.484z"/>
	<path fill="#80BA01" d="M49.656,121.484h45.055c0,15.018,0.003,30.037-0.002,45.055c-15.016-0.002-30.034,0-45.05,0
		C49.653,151.521,49.656,136.502,49.656,121.484L49.656,121.484z"/>
	<path fill="#777777" d="M406.298,138.651c4.154-2.704,9.521-2.955,14.201-1.667c0.041,2.782,0.006,5.566,0.02,8.351
		c-2.225-0.98-4.841-1.619-7.182-0.658c-1.856,0.736-2.961,2.641-3.25,4.546c-0.35,2.417-0.122,4.866-0.182,7.295
		c4.752,0.011,9.504,0.003,14.256,0.006c0.035-3.085-0.038-6.173,0.04-9.258c3.231-0.92,6.427-1.951,9.642-2.919
		c0.027,4.064-0.038,8.131,0.035,12.199c3.212-0.046,6.427-0.011,9.642-0.021v7.912c-3.226-0.132-6.453-0.035-9.679-0.046
		c0.013,4.549,0.002,9.097,0.005,13.649c0.051,2.52-0.136,5.053,0.159,7.563c0.179,1.48,0.718,3.12,2.105,3.886
		c2.325,1.302,5.274,0.733,7.409-0.695v7.991c-2.784,1.21-5.896,1.577-8.908,1.363c-2.857-0.211-5.817-1.25-7.683-3.522
		c-2.153-2.568-2.709-6.046-2.752-9.298c-0.024-6.982,0.003-13.964-0.011-20.948c-4.754-0.003-9.509-0.005-14.261,0.002
		c-0.006,10.957-0.003,21.914-0.003,32.87c-3.247,0-6.497,0-9.744,0c0-10.954-0.014-21.905,0.006-32.859
		c-2.26-0.043-4.522,0.011-6.782-0.035c0.009-2.6,0.02-5.204-0.005-7.807c2.248-0.051,4.5-0.03,6.754-0.014
		c0.165-3.458-0.362-7.017,0.671-10.386C401.676,143.111,403.619,140.367,406.298,138.651L406.298,138.651z"/>
	<path fill="#777777" d="M197.668,139.22c1.964-0.298,4.091,0.373,5.393,1.91c1.526,1.683,1.808,4.362,0.676,6.33
		c-1.25,2.219-4.048,3.25-6.486,2.717c-2.53-0.455-4.638-2.806-4.524-5.428C192.654,141.988,194.962,139.528,197.668,139.22
		L197.668,139.22z"/>
	<path fill="#777777" d="M122.989,140.426c4.725,0,9.447,0,14.171,0c4.411,11.201,8.854,22.39,13.271,33.59
		c1.128,2.801,2.184,5.634,3.366,8.413c5.675-13.996,11.431-27.956,17.062-41.971c4.543-0.073,9.089-0.016,13.636-0.027
		c-0.011,18.94-0.006,37.879-0.003,56.819c-3.28-0.009-6.557,0.026-9.834-0.02c0.036-13.977-0.002-27.953,0.017-41.933
		c0.005-0.628-0.017-1.256-0.06-1.883c-0.192,0.292-0.363,0.595-0.512,0.909c-5.631,14.307-11.371,28.573-16.969,42.893
		c-2.333,0.084-4.668,0.006-7.003,0.044c-5.81-14.307-11.547-28.646-17.327-42.964c-0.152-0.297-0.314-0.587-0.49-0.866
		c-0.119,6.124-0.019,12.253-0.052,18.377c0.003,8.48-0.005,16.961,0.003,25.442c-3.093,0.008-6.186,0-9.276,0.002
		C122.987,178.311,122.984,159.369,122.989,140.426L122.989,140.426z"/>
	<path fill="#777777" d="M224.484,156.487c4.703-1.339,9.774-1.285,14.475,0.043c0.969,0.271,1.908,0.647,2.779,1.159
		c-0.054,3.104,0,6.21-0.029,9.316c-3.142-2.4-7.128-3.921-11.122-3.417c-3.172,0.287-6.197,1.932-8.094,4.495
		c-2.438,3.177-3.001,7.396-2.582,11.281c0.314,3.042,1.572,6.081,3.937,8.097c2.457,2.184,5.902,2.958,9.117,2.714
		c3.177-0.365,6.175-1.71,8.743-3.588c0.027,2.941-0.014,5.883,0.021,8.824c-3.983,2.371-8.76,2.982-13.319,2.758
		c-4.665-0.246-9.317-2.014-12.694-5.293c-3.669-3.537-5.661-8.581-5.896-13.633c-0.238-5.253,0.831-10.732,3.854-15.119
		C216.207,160.381,220.168,157.731,224.484,156.487L224.484,156.487z"/>
	<path fill="#777777" d="M290.504,155.786c4.676-0.595,9.609-0.33,13.949,1.646c3.768,1.7,6.819,4.841,8.511,8.603
		c1.806,4.004,2.243,8.502,1.938,12.845c-0.3,4.24-1.632,8.489-4.283,11.858c-2.714,3.577-6.806,6.002-11.187,6.903
		c-3.746,0.779-7.664,0.776-11.409-0.012c-4.481-0.958-8.629-3.558-11.257-7.341c-3.085-4.384-3.962-9.958-3.569-15.211
		c0.265-4.457,1.65-8.949,4.497-12.445C280.811,158.716,285.593,156.406,290.504,155.786L290.504,155.786z"/>
	<path fill="#777777" d="M330.927,155.867c4.506-0.793,9.223-0.211,13.487,1.404c0.005,2.987,0,5.972,0.002,8.957
		c-2.979-2.048-6.618-3.15-10.233-3.022c-1.821,0.07-3.824,0.841-4.655,2.573c-0.66,1.713-0.202,3.959,1.413,4.984
		c2.763,1.849,6.059,2.633,8.922,4.289c2.254,1.267,4.44,2.923,5.583,5.31c2.146,4.47,1.236,10.378-2.536,13.711
		c-3.602,3.367-8.789,4.298-13.56,4.119c-3.389-0.22-6.793-0.888-9.907-2.273c0.014-3.142-0.019-6.28,0.017-9.42
		c2.619,1.902,5.642,3.264,8.84,3.816c2.228,0.362,4.649,0.378,6.725-0.617c1.986-0.988,2.344-3.811,1.164-5.537
		c-1.104-1.331-2.725-2.064-4.254-2.784c-2.871-1.291-5.889-2.37-8.41-4.306c-1.772-1.383-3.115-3.331-3.64-5.528
		c-0.779-3.239-0.536-6.89,1.348-9.72C323.383,158.524,327.119,156.546,330.927,155.867L330.927,155.867z"/>
	<path fill="#777777" d="M368.17,155.772c4.863-0.604,10.026-0.276,14.464,1.964c3.87,1.935,6.87,5.431,8.37,9.474
		c1.172,3.093,1.583,6.432,1.516,9.726c0.008,4.919-1.321,9.969-4.408,13.871c-2.891,3.777-7.312,6.231-11.98,7.003
		c-4.564,0.739-9.387,0.547-13.725-1.161c-4.395-1.729-8.048-5.258-9.898-9.604c-1.93-4.43-2.133-9.414-1.532-14.147
		c0.631-4.732,2.774-9.36,6.427-12.507C360.396,157.764,364.249,156.276,368.17,155.772L368.17,155.772z"/>
	<path fill="#777777" d="M263.527,157.15c2.69-1.616,6.107-1.751,9.044-0.763c-0.014,3.25,0,6.5-0.008,9.75
		c-1.922-1.245-4.319-1.778-6.587-1.547c-2.766,0.314-4.958,2.438-6.094,4.873c-1.234,2.579-1.467,5.496-1.389,8.316
		c0,6.491,0.003,12.983,0,19.475c-3.204,0-6.405,0-9.606,0c-0.008-13.567,0.011-27.139-0.008-40.707
		c3.207-0.041,6.413-0.024,9.62-0.008c-0.014,2.33,0,4.66-0.009,6.993C259.533,160.995,261.084,158.533,263.527,157.15
		L263.527,157.15z"/>
	<path fill="#777777" d="M193.611,156.538c3.231-0.013,6.465-0.046,9.696,0.017c-0.038,13.565-0.002,27.133-0.016,40.698
		c-3.226,0-6.451,0-9.674,0C193.609,183.683,193.62,170.111,193.611,156.538L193.611,156.538z"/>
	<path fill="#FEFEFE" d="M293.41,163.52c2.928-0.192,6.046,0.636,8.15,2.766c2.252,2.214,3.123,5.426,3.364,8.489
		c0.173,3.353,0.035,6.847-1.372,9.952c-0.931,2.095-2.636,3.865-4.787,4.703c-2.517,0.967-5.345,1.023-7.942,0.35
		c-2.644-0.695-4.887-2.606-6.107-5.039c-1.569-3.134-1.805-6.757-1.48-10.193c0.295-3.125,1.383-6.34,3.765-8.497
		C288.727,164.437,291.08,163.649,293.41,163.52L293.41,163.52z"/>
	<path fill="#FEFEFE" d="M370.8,163.528c2.753-0.192,5.691,0.444,7.808,2.303c1.951,1.618,3.03,4.043,3.526,6.484
		c0.557,2.863,0.552,5.826,0.081,8.702c-0.374,2.144-1.115,4.281-2.52,5.978c-1.415,1.705-3.521,2.744-5.693,3.063
		c-2.333,0.35-4.79,0.182-6.971-0.757c-2.354-0.996-4.179-3.034-5.14-5.377c-1.155-2.793-1.385-5.886-1.155-8.874
		c0.223-2.893,1.042-5.861,2.952-8.109C365.432,164.84,368.105,163.68,370.8,163.528L370.8,163.528z"/>
	<path fill="#FEFEFE" d="M433.841,164.391c3.226,0.011,6.453-0.086,9.679,0.046v24.357c-2.135,1.429-5.084,1.997-7.409,0.695
		c-1.388-0.766-1.927-2.405-2.105-3.886c-0.295-2.511-0.108-5.044-0.159-7.563C433.843,173.488,433.854,168.94,433.841,164.391
		L433.841,164.391z"/>
	<path fill="#02A4EF" d="M0,171.138c15.018,0.005,30.037-0.003,45.055,0.005c0.003,15.019,0,30.034,0,45.053H0V171.138L0,171.138z"
		/>
	<path fill="#FFB902" d="M49.658,171.143c15.016-0.005,30.035-0.003,45.053-0.003c0,15.019,0,30.037,0,45.056H49.656
		C49.658,201.177,49.653,186.158,49.658,171.143L49.658,171.143z"/>
</g>
</svg>
