<?xml version="1.0" encoding="utf-8"?>
<!-- Generator: Adobe Illustrator 15.0.2, SVG Export Plug-In  -->
<!DOCTYPE svg PUBLIC "-//W3C//DTD SVG 1.1//EN" "http://www.w3.org/Graphics/SVG/1.1/DTD/svg11.dtd" [
	<!ENTITY ns_flows "http://ns.adobe.com/Flows/1.0/">
]>
<svg version="1.1"
	 xmlns="http://www.w3.org/2000/svg" xmlns:xlink="http://www.w3.org/1999/xlink" xmlns:a="http://ns.adobe.com/AdobeSVGViewerExtensions/3.0/"
	 x="0px" y="0px" width="108px" height="72px" viewBox="-18.463 0 108 72"
	 overflow="visible" enable-background="new -18.463 0 108 72" xml:space="preserve">
<defs>
</defs>
<polygon fill="#8CC640" points="49.03,33.892 70.046,55.963 35.324,45.068 "/>
<polygon fill="#8CC640" points="23.205,1.145 30.975,34.613 32.966,33.318 41.433,34.513 44.123,28.537 "/>
<path fill-rule="evenodd" clip-rule="evenodd" fill="#6B6B6B" d="M44.278,27.87c3.815-7.812,7.567-15.895,11.504-23.723
	c0.216-0.428,0.331-1.316,1.073-1.252c0.472,0.602,0.128,1.398,0.059,2.026c-1.098,10.005-2.2,20.142-3.277,30.339
	c-0.073,0.715-0.339,1.634-0.238,2.146c0.128,0.658,1.627,1.865,2.205,2.443c3.906,3.906,7.226,7.822,11.205,11.803
	c1.021,1.02,2.221,2.277,3.398,3.516c0.344,0.363,1.022,0.918,0.835,1.312c-0.283,0.59-4.137,0.299-5.067,0.299
	c-10.779,0-20.991,0.176-31.71,0.176c-1.802,0-3.71-0.217-5.305,0c-0.944,0.131-2.002,0.672-3.041,1.014
	c-2.616,0.867-4.789,1.525-7.629,2.445c-1.384,0.447-1.626,0.596-2.026-0.834c-0.146-0.527-0.239-0.756-0.357-1.373
	c-1.479,0.699-2.276-1.229-2.92-2.084c-0.276-0.367-0.586-0.66-0.894-1.074c-0.248-0.336-0.77-0.963-0.774-1.191
	c-0.018-0.889,1.825-1.566,1.966-2.383c0.09-0.516-0.304-1.893-0.417-2.564c-0.964-5.74-2.163-11.877-3.04-17.524
	c-2.204,0.793-4.611,1.815-6.915,2.801c-0.697,0.3-1.478,0.949-2.265,0.598c-0.133-0.645,0.487-1.097,0.834-1.551
	c2.135-2.792,4.31-5.56,6.557-8.464c0.318-0.412,0.77-1.294,1.132-1.371c0.334-0.072,1.152,0.267,1.549,0.357
	c1.174,0.269,1.92,0.454,3.1,0.715c0.534,0.119,1.16,0.115,1.55,0.298c0.521,0.245,1.286,1.545,1.668,2.027
	c0.588,0.739,1.129,1.409,1.668,1.966c1.381-9.508,2.574-19.203,4.053-28.61c0.617-0.623,1.271,0.814,1.729,1.43
	C30.908,10.228,37.973,19.465,44.278,27.87z M31.105,34.009c0.774-0.117,1.094-1.313,1.967-1.432
	c0.474-0.063,1.352,0.237,2.027,0.358c2.056,0.37,4.347,0.797,6.14,1.133c0.846-1.716,1.691-3.433,2.503-5.187
	c-6.57-8.928-13.222-17.773-19.909-26.583C26.238,12.887,28.725,23.396,31.105,34.009z M22.284,9.69
	c-0.772,5.64-1.578,11.104-2.326,16.749c-0.101,0.766-0.559,2.733-0.416,3.397c0.063,0.299,0.551,0.717,0.834,1.073
	c2.064,2.599,3.928,5.036,5.961,7.392c1.439-1.264,2.936-2.467,4.291-3.815c-2.532-10.483-4.806-21.222-7.391-31.651
	C23.013,5.044,22.611,7.298,22.284,9.69z M41.239,36.275c0.855,0.374,1.721,0.743,2.622,1.073c1.276-0.998,2.526-2.064,3.815-3.161
	c0.285-0.242,1.024-0.984,1.43-0.953c0.347,0.029,0.598,0.508,0.895,0.835c0.609,0.672,1.147,1.147,1.728,1.729
	c0.265,0.263,0.491,0.727,0.836,0.655c1.017-10.109,2.307-20.262,3.218-30.28C50.982,16.253,46.062,26.217,41.239,36.275z
	 M9.469,24.413c-1.984,2.526-3.931,5.09-5.902,7.629c1.718-1.419,3.556-2.911,5.305-4.411c0.578-0.496,1.167-1.253,1.789-1.49
	c1.12-0.426,2.395-0.184,3.695-0.597C12.747,25.147,11.094,24.793,9.469,24.413z M15.19,26.082
	c-1.332,0.216-2.709,0.389-4.053,0.597c1.891,10.804,3.977,21.416,5.901,32.185c3.653-5.645,7.171-11.424,10.669-17.225
	C23.545,36.445,19.464,31.166,15.19,26.082z M7.084,29.896c-1.168,0.993-2.37,1.994-3.337,2.98c0.003-0.037,0.009-0.07,0.059-0.059
	c1.084-0.479,2.176-0.907,3.278-1.373c1.061-0.448,2.127-1.114,3.338-1.192c0.42,1.036,0.52,2.182,0.714,3.278
	c1.3,7.326,2.727,14.902,4.053,22.113c0.097,0.531,0.055,1.162,0.418,1.609c0.754-0.119,0.264-1.09,0.177-1.551
	c-1.774-9.492-3.494-19.256-5.244-28.608C9.407,27.891,8.246,28.908,7.084,29.896z M40.345,35.917
	c0.112-0.334,0.467-0.709,0.415-1.013c-1.633-0.195-3.289-0.684-4.827-0.774C37.437,34.691,38.861,35.333,40.345,35.917z
	 M26.932,39.135c0.486,0.566,0.9,1.205,1.431,1.729c1.299-2.178,2.651-4.303,3.993-6.438c0.014-0.074,0.093-0.121-0.059-0.118
	C30.576,35.984,28.615,37.42,26.932,39.135z M35.753,44.023c2.322-1.852,4.94-3.924,7.213-6.02c-3.014-1.18-5.906-2.479-8.94-3.637
	C34.576,37.611,35.149,40.834,35.753,44.023z M48.987,34.367c-4.276,3.553-8.623,7.034-12.815,10.67
	c11.005,3.398,21.881,6.928,32.842,10.371C62.553,48.416,55.68,41.32,48.987,34.367z M18.648,58.15
	c0.183,0.082,0.312-0.154,0.416-0.24c4.767-3.822,9.391-7.707,14.067-11.682c0.561-0.479,1.921-1.258,2.027-1.791
	c0.091-0.451-0.29-1.715-0.418-2.443c-0.406-2.312-0.959-5.667-1.43-7.389C28.452,42.482,23.567,50.332,18.648,58.15z
	 M32.417,50.877c-0.796,1.314-1.587,2.617-2.325,3.873c-0.26,0.445-0.62,0.895-0.597,1.254c12.898-0.057,25.835-0.076,38.625-0.24
	c-10.84-3.387-21.602-6.85-32.425-10.252C34.579,47.172,33.512,49.066,32.417,50.877z M26.456,52.963
	c-2.337,1.939-4.713,3.941-6.974,5.842c-0.093,0.078-0.339,0.164-0.298,0.357c3.116-1.018,6.186-2.078,9.358-3.039
	c1.874-3.135,3.785-6.23,5.603-9.42c0.063,0,0.047-0.076-0.06-0.059C31.678,48.779,29.011,50.842,26.456,52.963z M12.509,53.975
	c0.509,0.684,1.022,1.361,1.548,2.029c-0.182-1.07-0.278-2.225-0.594-3.16C13.159,53.236,12.763,53.537,12.509,53.975z"/>
<path fill="#6B6B6B" d="M1.627,65.09H0v-0.586h3.961v0.586H2.326v4.762H1.627V65.09z"/>
<path fill="#6B6B6B" d="M5.843,64.504v2.238h2.587v-2.238h0.698v5.348H8.431v-2.508H5.843v2.508H5.145v-5.348H5.843z"/>
<path fill="#6B6B6B" d="M13.687,67.344h-2.071v1.93h2.318v0.578h-3.017v-5.348h2.897v0.578h-2.199v1.691h2.071V67.344z"/>
<path fill="#6B6B6B" d="M21.436,69.686c-0.246,0.127-0.762,0.254-1.413,0.254c-1.508,0-2.635-0.951-2.635-2.715
	c0-1.682,1.135-2.809,2.793-2.809c0.659,0,1.087,0.143,1.27,0.238l-0.174,0.562c-0.254-0.127-0.627-0.223-1.072-0.223
	c-1.254,0-2.087,0.803-2.087,2.207c0,1.318,0.754,2.15,2.048,2.15c0.429,0,0.857-0.086,1.135-0.221L21.436,69.686z"/>
<path fill="#6B6B6B" d="M22.905,64.574c0.349-0.062,0.857-0.111,1.326-0.111c0.738,0,1.222,0.143,1.547,0.438
	c0.262,0.238,0.42,0.602,0.42,1.023c0,0.697-0.444,1.166-1,1.357v0.023c0.405,0.143,0.651,0.523,0.778,1.08
	c0.175,0.746,0.302,1.262,0.413,1.467h-0.714c-0.087-0.158-0.206-0.609-0.349-1.277c-0.159-0.738-0.453-1.016-1.08-1.039h-0.651
	v2.316h-0.69V64.574z M23.596,67.012h0.707c0.738,0,1.206-0.406,1.206-1.018c0-0.689-0.5-0.99-1.23-0.99
	c-0.333,0-0.563,0.023-0.683,0.055V67.012z"/>
<path fill="#6B6B6B" d="M30.534,67.344h-2.072v1.93h2.318v0.578h-3.016v-5.348h2.897v0.578h-2.199v1.691h2.072V67.344z"/>
<path fill="#6B6B6B" d="M33.139,68.17l-0.556,1.682h-0.714l1.826-5.348h0.825l1.826,5.348h-0.738l-0.572-1.682H33.139z
	 M34.901,67.631l-0.532-1.541c-0.119-0.35-0.198-0.666-0.277-0.977h-0.016c-0.079,0.311-0.159,0.643-0.27,0.969l-0.523,1.549H34.901
	z"/>
<path fill="#6B6B6B" d="M38.132,65.09h-1.626v-0.586h3.96v0.586h-1.635v4.762h-0.699V65.09z"/>
<path fill="#6B6B6B" d="M42.348,64.504v5.348h-0.697v-5.348H42.348z"/>
<path fill="#6B6B6B" d="M45.326,69.852l-1.754-5.348h0.754l0.834,2.635c0.222,0.723,0.42,1.373,0.571,2h0.016
	c0.15-0.619,0.365-1.295,0.611-1.992l0.904-2.643H48l-1.912,5.348H45.326z"/>
<path fill="#6B6B6B" d="M51.939,67.344h-2.071v1.93h2.318v0.578h-3.017v-5.348h2.897v0.578h-2.199v1.691h2.071V67.344z"/>
<path fill="#6B6B6B" d="M55.95,64.504h2.881v0.578h-2.183v1.777h2.016v0.572h-2.016v2.42H55.95V64.504z"/>
<path fill="#6B6B6B" d="M63.181,67.344H61.11v1.93h2.317v0.578h-3.016v-5.348h2.897v0.578H61.11v1.691h2.071V67.344z"/>
<path fill="#6B6B6B" d="M65.866,69.852l-1.357-5.348h0.73l0.635,2.705c0.158,0.668,0.302,1.334,0.396,1.85h0.016
	c0.088-0.531,0.254-1.166,0.438-1.857l0.714-2.697h0.723l0.65,2.713c0.151,0.637,0.294,1.27,0.373,1.834H69.2
	c0.11-0.588,0.262-1.182,0.428-1.85l0.707-2.697h0.706l-1.516,5.348h-0.723l-0.675-2.785c-0.167-0.682-0.277-1.207-0.349-1.746
	h-0.017c-0.087,0.531-0.214,1.057-0.412,1.746l-0.763,2.785H65.866z"/>
</svg>
