<?xml version="1.0" encoding="utf-8"?>
<!-- Generator: Adobe Illustrator 15.0.2, SVG Export Plug-In . SVG Version: 6.00 Build 0)  -->
<!DOCTYPE svg PUBLIC "-//W3C//DTD SVG 1.1//EN" "http://www.w3.org/Graphics/SVG/1.1/DTD/svg11.dtd">
<svg version="1.1" id="Layer_1" xmlns="http://www.w3.org/2000/svg" xmlns:xlink="http://www.w3.org/1999/xlink" x="0px" y="0px"
	 width="443.52px" height="337.68px" viewBox="0 0 443.52 337.68" enable-background="new 0 0 443.52 337.68" xml:space="preserve">
<g>
	<path fill-rule="evenodd" clip-rule="evenodd" fill="#7847A6" d="M272.436,93.069c-10.709,1.475-17.912-7.332-14.13-15.593
		c-0.271-1.075-2.823-0.633-1.462-1.949C268.869,72.686,272.996,81.724,272.436,93.069z"/>
	<path fill-rule="evenodd" clip-rule="evenodd" fill="#7847A6" d="M221.272,82.836c-2.147,4.141,5.601,13.125-0.487,18.517
		c-5.911,0.91-11.478,2.166-15.593,4.872C190.813,98.761,202.954,76.982,221.272,82.836z"/>
	<path fill-rule="evenodd" clip-rule="evenodd" fill="#7847A6" d="M280.72,118.407c1.085,6.944-2.297,17.298-8.771,18.516
		c-5.224,0.983-19.81-5.843-18.516-12.182C254.565,119.189,272.196,117.086,280.72,118.407z"/>
	<path fill-rule="evenodd" clip-rule="evenodd" fill="#FFFFFF" d="M331.883,146.182c2.557,2.589,1.679,6.925,1.949,10.233
		c1.982,24.264,4.42,51.332,6.335,76.501c-40.051,7.052-79.498,14.709-119.869,21.44c-3.484-28.838-7.149-57.496-10.232-86.735
		c5.698-0.798,11.476-1.518,17.055-2.436c11.827,7.132,30.535,3.278,36.545-6.335C286.196,154.418,309.301,150.561,331.883,146.182z
		 M308.981,196.37c-7.666-5.002-15.073-10.265-22.901-15.104c-6.358,10.858-12.376,22.058-19.491,32.16
		c-6.912-2.347-14.085-4.433-21.44-6.335c-7.191,9.375-13.017,20.117-19.979,29.724c0.545,2.866,0.951,5.871,0.976,9.258
		c35.972-6.096,71.074-13.061,106.713-19.49c-2.579-21.785-3.39-45.339-6.823-66.27C320.768,172.748,314.97,184.654,308.981,196.37z
		"/>
	<path fill-rule="evenodd" clip-rule="evenodd" fill="#7847A6" d="M326.035,160.312c3.434,20.931,4.244,44.484,6.823,66.27
		c-35.639,6.43-70.741,13.395-106.713,19.49c-0.024-3.387-0.431-6.392-0.976-9.258c6.962-9.606,12.787-20.349,19.979-29.724
		c7.355,1.902,14.528,3.988,21.44,6.335c7.115-10.103,13.133-21.302,19.491-32.16c7.828,4.84,15.235,10.103,22.901,15.104
		C314.97,184.654,320.768,172.748,326.035,160.312z"/>
	<path fill-rule="evenodd" clip-rule="evenodd" fill="#7847A6" d="M322.625,337.68c-3.086,0-6.172,0-9.258,0
		c-13.71-1.775-20.046-11.574-20.953-23.389c-1.481-19.301,10.73-29.147,27.774-28.263c3.521,0.183,8.259,0.849,12.182,2.924
		c15.102,7.986,13.418,38.644-0.487,45.804C329.037,336.222,326.65,336.629,322.625,337.68z M305.083,299.673
		c-4.249,5.92-4.61,20.663,1.462,26.312c4.917,4.573,16.372,5.263,21.928,0.486c6.719-5.775,6.213-23.422,0.486-28.748
		c-3.535-3.29-9.184-3.816-14.618-2.924C310.376,295.45,307.198,296.725,305.083,299.673z"/>
	<path fill-rule="evenodd" clip-rule="evenodd" fill="#7847A6" d="M391.817,288.465c0,2.924,0,5.848,0,8.771
		c-13.969-6.164-31.829-3.422-32.646,12.67c-0.664,13.043,6.676,22.165,22.901,19.004c1.076-2.985,0.207-7.915,0.487-11.694
		c-2.119-1.13-6.329-0.169-9.258-0.488c1.387-2.512,2.075-5.721,3.411-8.283c5.034,0,10.069,0,15.104,0c0,8.933,0,17.867,0,26.8
		c-3.317,0.906-6.774,1.671-10.232,2.437c-3.249,0-6.497,0-9.745,0c-14.489-1.765-21.64-10.134-22.415-23.877
		C348.137,290.975,367.675,280.61,391.817,288.465z"/>
	<path fill-rule="evenodd" clip-rule="evenodd" fill="#7847A6" d="M51.702,286.517c14.906,1.179,28.444-2.898,38.007,3.897
		c14.129,10.041,9.784,47.547-11.694,46.778c-8.771,0-17.542,0-26.312,0C51.702,320.3,51.702,303.408,51.702,286.517z
		 M78.989,328.422c10.393-3.349,14.003-27.414,1.462-32.648c-5.526-2.306-10.869-0.28-19.004-0.974
		c-1.136,10.396-0.163,22.901-0.487,34.109C68.184,328.232,73.976,330.037,78.989,328.422z"/>
	<path fill-rule="evenodd" clip-rule="evenodd" fill="#7847A6" d="M129.665,286.517c7.18,16.858,14.249,33.829,21.927,50.188
		c-2.443,1.13-6.979,0.168-10.232,0.487c-2.08-4.579-4.118-9.201-6.334-13.644c-5.36,0-10.72,0-16.08,0
		c0.657-3.079,2.267-5.205,2.924-8.284c3.411,0,6.822,0,10.232,0c-1.163-5.499-5.481-12.058-7.309-18.516
		c-6.781,12.384-11.53,26.802-17.055,40.443c-3.248,0-6.497,0-9.745,0c6.965-17.074,14.274-33.803,21.44-50.676
		C122.844,286.517,126.254,286.517,129.665,286.517z"/>
	<path fill-rule="evenodd" clip-rule="evenodd" fill="#7847A6" d="M184.727,286.517c0,2.761,0,5.521,0,8.283
		c-4.71,0-9.42,0-14.131,0c-1.137,13.157-0.163,28.424-0.487,42.393c-3.086,0-6.172,0-9.258,0c0-14.131,0-28.262,0-42.393
		c-4.873,0-9.746,0-14.618,0c0-2.762,0-5.522,0-8.283C159.064,286.517,171.896,286.517,184.727,286.517z"/>
	<path fill-rule="evenodd" clip-rule="evenodd" fill="#7847A6" d="M212.014,286.517c6.7,17.339,14.784,33.293,21.44,50.676
		c-3.248,0-6.497,0-9.746,0c-2.216-4.442-4.254-9.063-6.333-13.644c-5.36,0-10.72,0-16.08,0c0.612-3.124,1.943-5.528,2.923-8.284
		c3.411,0,6.822,0,10.233,0c-2.171-6.6-5.176-12.366-7.796-18.516c-6.35,12.815-11.066,27.266-17.055,40.443
		c-3.086,0-6.172,0-9.258,0c6.559-17.317,14.508-33.244,20.953-50.676C204.868,286.517,208.441,286.517,212.014,286.517z"/>
	<path fill-rule="evenodd" clip-rule="evenodd" fill="#7847A6" d="M240.764,286.517c14.991,1.168,26.547-2.718,36.545,3.41
		c11.598,7.109,11.564,32.655,1.949,41.906c-7.625,7.334-23.533,5.048-38.981,5.359c0-16.405,0-32.81,0-49.214
		C240.234,287.286,240.195,286.598,240.764,286.517z M275.847,303.57c-2.833-9.509-13.778-9.294-25.825-8.771
		c-1.137,10.396-0.163,22.901-0.487,34.109C269.438,333.406,281.012,320.897,275.847,303.57z"/>
	<path fill-rule="evenodd" clip-rule="evenodd" fill="#FFFFFF" d="M314.341,294.8c5.435-0.893,11.083-0.366,14.618,2.924
		c5.727,5.326,6.232,22.973-0.486,28.748c-5.556,4.776-17.011,4.087-21.928-0.486c-6.072-5.649-5.711-20.393-1.462-26.312
		C307.198,296.725,310.376,295.45,314.341,294.8z"/>
	<path fill-rule="evenodd" clip-rule="evenodd" fill="#FFFFFF" d="M391.817,297.235c0,3.736,0,7.472,0,11.208
		c-5.035,0-10.07,0-15.104,0c-1.336,2.562-2.024,5.771-3.411,8.283c2.929,0.319,7.139-0.642,9.258,0.488
		c-0.28,3.779,0.589,8.709-0.487,11.694c-16.226,3.161-23.565-5.961-22.901-19.004C359.988,293.813,377.849,291.071,391.817,297.235
		z"/>
	<path fill-rule="evenodd" clip-rule="evenodd" fill="#FFFFFF" d="M60.96,328.909c0.324-11.208-0.649-23.714,0.487-34.109
		c8.135,0.693,13.478-1.332,19.004,0.974c12.541,5.234,8.931,29.3-1.462,32.648C73.976,330.037,68.184,328.232,60.96,328.909z"/>
	<path fill-rule="evenodd" clip-rule="evenodd" fill="#FFFFFF" d="M249.534,328.909c0.324-11.208-0.649-23.714,0.487-34.109
		c12.047-0.523,22.992-0.738,25.825,8.771C281.012,320.897,269.438,333.406,249.534,328.909z"/>
	<path fill-rule="evenodd" clip-rule="evenodd" fill="#FFFFFF" d="M391.817,335.243c0,0.812,0,1.624,0,2.437
		c-3.41,0-6.821,0-10.232,0C385.043,336.914,388.5,336.149,391.817,335.243z"/>
	<path fill-rule="evenodd" clip-rule="evenodd" fill="#7847A6" d="M319.701,0c4.404,45.785,8.977,91.402,13.157,137.411
		c2.933,0.644,5.543-1.584,7.309-0.487c3.169,36.461,7.44,71.823,10.72,108.174c-45.688,4.988-90.27,11.084-135.949,16.08
		c-0.278-7.518-2.088-13.505-2.436-20.953c-3.069,0.018-5.215,0.958-8.284,0.976c-0.561,11.841-0.467,21.035-6.822,28.261
		c-8.947,10.175-34.624,9.965-38.495-3.897c16.315,11.326,37.131,1.992,38.982-16.08c1.443-14.086-6.931-33.073-16.08-40.443
		c-5.791-4.666-14.521-6.538-23.389-6.822c26.005-4.922,38.844,11.413,44.342,30.211c3.255-0.156,5.958-0.863,8.771-1.462
		c-2.523-22.654-6.446-46.501-8.284-68.218c6.12-0.053,10.857-1.487,17.055-1.462c-2.303-3.616-7.245-5.925-11.208-9.258
		c-3.749-3.153-8.402-6.71-9.745-11.694c12.645,6.825,32.3,25.983,52.625,17.542c8.046-3.341,12.829-11.115,19.003-15.105
		c0.132,3.322-3.167,5.461-2.436,7.796c5.339,2.393,11.139-0.507,17.054-0.487c4.721-7.392,8.718-21.35,4.386-32.647
		c-3.306-8.62-12.349-14.539-14.131-21.44c-0.904-3.502-0.023-7.447-0.487-10.719c-2.707-19.126-18.826-26.998-27.774-37.521
		c2.608,2.018,6.587,3.312,9.745,5.36c2.888,1.872,5.289,5.676,7.31,5.36c2.279-3.682-1.353-7.462-2.437-11.695
		c-1.912-7.468-0.675-16.365-3.897-22.415c6.62,6.818,7.033,19.148,13.643,27.774c3.925,5.122,9.065,11.724,17.542,10.72
		c2.025-12.891-6.252-24.953-13.644-32.647c-4.65-4.841-14.21-13.935-23.876-8.283c-6.999,4.092-8.639,17.208-21.44,18.029
		c-3.604,0.23-7.414-1.143-13.156-0.488c0.332-1.779,1.847-2.376,2.437-3.898c-3.606,0.78-5.563,3.208-9.259,3.898
		c0.62-1.654,1.73-2.818,2.437-4.385c-2.623,0.634-5.145,3.94-6.822,3.898c-0.163-1.822,3.485-4.363,1.462-4.872
		c-4.112,1.896-7.071,4.948-10.233,7.796c-6.446,0.324-9.406,5.271-15.105,5.36c-4.567,0.071-10.478-3.342-13.644-6.335
		c-3.13-2.959-4.353-8.303-9.746-9.258c-10.383-1.838-17.526,7.307-27.287,9.746c1.961,0.312,5.181-0.634,6.334,0.487
		c-3.37,0.854-6.259,2.188-8.771,3.898c1.165,0.296,3.535-0.612,3.898,0.487c-3.865,3.606-8.905,6.038-12.182,10.233
		c1.834,0.186,3.5-2.314,4.873-0.975c-13.079,14.064,6.937,35.343,19.978,40.443c7.248,2.834,16.1-2.068,19.491-6.334
		c10.301-12.961-2.965-36.824-4.385-51.164c4.195,13.275,17.457,34.025,14.618,52.625c-1.545,10.125-18.031,15.587-29.724,9.745
		c-1.189,14.608,3.11,27.236,6.335,38.981c0.199-1.75,0.123-3.775,1.462-4.385c0.363,3.21,0.651,6.496,2.436,8.283
		c-0.051-2-0.08-3.977,0.975-4.872c3.321,3.014,4.078,8.591,7.309,11.694c-0.021-1.604-0.823-2.426-0.487-4.385
		c6.318,6.254,10.689,19.804,7.796,28.749c-6.645,20.549-43.958,30.661-39.469,56.036c1.408,7.956,12.887,11.164,15.105,18.517
		c-8.312,1.596-17.299,2.516-25.825,3.897c-9.167-75.782-18.615-151.278-27.774-227.068C168.298,17.52,243.473,9.204,317.752,0
		C318.402,0,319.052,0,319.701,0z M263.665,158.851c-6.01,9.613-24.718,13.467-36.545,6.335c-5.579,0.918-11.356,1.638-17.055,2.436
		c3.083,29.239,6.748,57.897,10.232,86.735c40.371-6.731,79.818-14.389,119.869-21.44c-1.915-25.17-4.353-52.237-6.335-76.501
		c-0.271-3.308,0.607-7.644-1.949-10.233C309.301,150.561,286.196,154.418,263.665,158.851z"/>
</g>
</svg>
