<?xml version="1.0" encoding="utf-8"?>
<!-- Generator: Adobe Illustrator 15.0.2, SVG Export Plug-In  -->
<!DOCTYPE svg PUBLIC "-//W3C//DTD SVG 1.1//EN" "http://www.w3.org/Graphics/SVG/1.1/DTD/svg11.dtd" [
	<!ENTITY ns_flows "http://ns.adobe.com/Flows/1.0/">
]>
<svg version="1.1"
	 xmlns="http://www.w3.org/2000/svg" xmlns:xlink="http://www.w3.org/1999/xlink" xmlns:a="http://ns.adobe.com/AdobeSVGViewerExtensions/3.0/"
	 x="0px" y="0px" width="80px" height="80px" viewBox="63.042 0 80 80" overflow="visible" enable-background="new 63.042 0 80 80"
	 xml:space="preserve">
<defs>
</defs>
<path fill="#FFFFFF" d="M63.042,0l36.8,36.8h4.8l3.84,8.64L143.042,80V0H63.042z"/>
<path fill="#151513" d="M104.002,34.88c-4.8-2.88-2.88-6.08-2.88-6.08c0.96-2.24,0.64-3.52,0.64-3.52
	c-0.32-2.24,0.96-0.64,0.96-0.64c1.28,1.6,0.64,3.52,0.64,3.52c-0.96,3.2,1.6,4.8,2.88,5.12"/>
<path fill="#151513" d="M99.842,36.8c0,0,1.28,0.64,1.6,0l4.48-4.48c0.96-0.64,1.92-0.96,2.56-0.96
	c-2.56-3.52-4.799-7.68,0.641-13.12c1.6-1.6,3.199-2.24,5.12-2.24c0.319-0.64,0.96-2.24,3.84-3.52c0,0,1.601,0.96,2.239,5.12
	c1.281,0.64,2.561,1.6,3.841,2.88s2.239,2.56,2.88,3.84c4.48,0.96,5.439,2.24,5.439,2.24c-1.279,2.56-2.879,3.52-3.52,3.52
	c0,1.92-0.641,3.52-2.24,5.12c-5.119,5.12-9.6,3.2-13.119,0.64c0,0.96-0.32,2.24-1.601,3.52l-3.84,3.52
	c-0.32,0.32,0.319,1.601,0.319,1.601L99.842,36.8z"/>
<text transform="matrix(0.7323 0.681 -0.681 0.7323 2.043 12.2549)" font-family="'MyriadPro-Regular'" font-size="12">Fork on Github</text>
<path d="M75.819,15.545l3.08,3.08l-0.619,0.619l-2.333-2.333l-1.9,1.9l2.155,2.155l-0.611,0.611l-2.155-2.155l-2.587,2.587
	l-0.747-0.747L75.819,15.545z"/>
<path d="M79.757,26.745c-1.519,1.519-3.241,1.12-4.225,0.136c-1.103-1.103-1.154-2.783,0.144-4.081
	c1.366-1.366,3.08-1.264,4.208-0.136C81.064,23.844,81.004,25.498,79.757,26.745z M76.465,23.539
	c-0.899,0.899-1.069,2.087-0.339,2.816c0.713,0.713,1.917,0.577,2.842-0.348c0.696-0.696,1.222-1.917,0.339-2.8
	C78.434,22.333,77.238,22.767,76.465,23.539z"/>
<path d="M81.446,26.958c0.484-0.484,0.891-0.908,1.247-1.315l0.653,0.653l-0.78,0.849l0.025,0.025
	c0.738-0.365,1.544-0.254,2.044,0.246c0.077,0.076,0.127,0.144,0.187,0.221l-0.705,0.704c-0.059-0.094-0.136-0.17-0.237-0.271
	c-0.526-0.526-1.29-0.509-1.951-0.051c-0.119,0.085-0.255,0.204-0.374,0.323l-2.189,2.188l-0.747-0.747L81.446,26.958z"/>
<path d="M84.392,31.109l0.017,0.017c0.246-0.042,0.56-0.084,0.823-0.11l2.63-0.204l0.891,0.891l-3.266,0.11l-0.611,4.225
	l-0.917-0.917l0.56-3.376l-0.806,0.042l-1.544,1.544l-0.738-0.738l6.024-6.023l0.738,0.738L84.392,31.109z"/>
<path d="M93.005,39.993c-1.519,1.519-3.241,1.12-4.225,0.136c-1.103-1.103-1.154-2.783,0.145-4.081
	c1.366-1.366,3.08-1.264,4.208-0.136C94.312,37.091,94.252,38.746,93.005,39.993z M89.713,36.786
	c-0.899,0.899-1.069,2.087-0.339,2.816c0.713,0.713,1.917,0.577,2.842-0.348c0.696-0.696,1.222-1.917,0.339-2.8
	C91.681,35.581,90.485,36.014,89.713,36.786z"/>
<path d="M94.857,40.03c0.433-0.433,0.764-0.781,1.077-1.146l0.662,0.662l-0.637,0.721l0.017,0.017
	c0.585-0.178,1.442-0.085,2.121,0.594c0.568,0.568,1.111,1.79-0.297,3.198l-2.443,2.443l-0.747-0.746l2.367-2.367
	c0.662-0.662,0.967-1.459,0.263-2.163c-0.483-0.483-1.213-0.518-1.765-0.237c-0.127,0.059-0.271,0.169-0.398,0.297l-2.469,2.469
	l-0.747-0.747L94.857,40.03z"/>
<path d="M103.021,53.674c-0.458-0.203-1.307-0.679-2.079-1.451c-0.866-0.865-1.357-1.798-1.383-2.893
	c-0.017-0.967,0.441-2.036,1.332-2.927c1.706-1.705,4.132-1.773,6.049,0.144c0.662,0.662,1.044,1.332,1.171,1.697l-0.789,0.416
	c-0.161-0.45-0.44-0.934-1.018-1.511c-1.392-1.391-3.165-1.434-4.599,0c-1.451,1.451-1.442,3.173-0.102,4.514
	c0.483,0.483,0.882,0.747,1.137,0.831l1.705-1.705l-1.153-1.153l0.594-0.594l1.883,1.883L103.021,53.674z"/>
<path d="M103.863,55.024l4.105-4.106l0.747,0.747l-4.106,4.106L103.863,55.024z M109.954,50.596
	c-0.254,0.255-0.636,0.28-0.933-0.017c-0.271-0.271-0.246-0.653,0.008-0.908c0.255-0.254,0.653-0.279,0.934,0
	C110.234,49.942,110.217,50.333,109.954,50.596z"/>
<path d="M111.838,52.82l-0.984,0.983l1.068,1.069l-0.568,0.568l-1.068-1.069l-2.215,2.215c-0.509,0.509-0.653,0.941-0.237,1.357
	c0.204,0.203,0.34,0.306,0.483,0.382l-0.534,0.603c-0.195-0.094-0.476-0.271-0.764-0.561c-0.348-0.348-0.509-0.746-0.492-1.12
	c0.025-0.433,0.306-0.882,0.789-1.365l2.24-2.24l-0.637-0.636l0.568-0.568l0.637,0.636l0.764-0.764L111.838,52.82z"/>
<path d="M114.682,53.798l0.747,0.747l-2.57,2.57l0.017,0.017c0.331-0.093,0.713-0.102,1.069,0c0.348,0.094,0.687,0.28,0.967,0.561
	c0.552,0.551,1.095,1.772-0.314,3.181l-2.443,2.443l-0.746-0.746l2.358-2.358c0.662-0.662,0.967-1.459,0.263-2.163
	c-0.483-0.484-1.196-0.518-1.739-0.264c-0.152,0.068-0.271,0.17-0.407,0.306l-2.477,2.478l-0.747-0.747L114.682,53.798z"/>
<path d="M117.923,66.829c-0.433,0.433-0.798,0.814-1.095,1.162l-0.661-0.661l0.628-0.713l-0.018-0.017
	c-0.518,0.144-1.392,0.136-2.121-0.595c-0.645-0.645-1.052-1.781,0.382-3.215l2.401-2.401l0.746,0.747l-2.265,2.265
	c-0.78,0.781-1.069,1.562-0.398,2.231c0.5,0.501,1.195,0.501,1.671,0.297c0.145-0.059,0.306-0.169,0.449-0.313l2.512-2.512
	l0.746,0.747L117.923,66.829z"/>
<path d="M124.076,63.191l0.738,0.738l-2.579,2.579l0.017,0.017c0.722-0.195,1.485-0.008,2.146,0.653
	c1.027,1.026,0.892,2.588-0.348,3.826c-1.468,1.468-3.13,1.265-4.047,0.348c-0.594-0.594-0.84-1.298-0.619-2.146l-0.017-0.018
	l-0.713,0.628l-0.637-0.637c0.298-0.263,0.73-0.661,1.095-1.026L124.076,63.191z M120.436,68.308
	c-0.093,0.093-0.178,0.194-0.237,0.305c-0.382,0.653-0.297,1.451,0.246,1.994c0.789,0.789,1.884,0.61,2.825-0.331
	c0.823-0.823,1.103-1.951,0.297-2.757c-0.501-0.501-1.332-0.62-2.045-0.212c-0.118,0.067-0.237,0.152-0.356,0.271L120.436,68.308z"
	/>
</svg>
