<?xml version="1.0" encoding="utf-8"?>
<!-- Generator: Adobe Illustrator 15.0.2, SVG Export Plug-In . SVG Version: 6.00 Build 0)  -->
<!DOCTYPE svg PUBLIC "-//W3C//DTD SVG 1.1//EN" "http://www.w3.org/Graphics/SVG/1.1/DTD/svg11.dtd">
<svg version="1.1" id="Layer_1" xmlns="http://www.w3.org/2000/svg" xmlns:xlink="http://www.w3.org/1999/xlink" x="0px" y="0px"
	 width="443.52px" height="337.68px" viewBox="-113.76 -96.84 443.52 337.68" enable-background="new -113.76 -96.84 443.52 337.68"
	 xml:space="preserve">
<image overflow="visible" enable-background="new    " width="216" height="108" xlink:href="87B699DC.png"  transform="matrix(1 0 0 1 358 18)">
</image>
<g>
	<polyline fill="none" stroke="#221F1F" stroke-width="3.3048" stroke-miterlimit="10" points="170.731,44.259 140.69,44.259 
		140.69,108.502 170.131,108.502 	"/>
	
		<line fill="none" stroke="#221F1F" stroke-width="3.3048" stroke-miterlimit="10" x1="168.943" y1="75.189" x2="140.986" y2="75.189"/>
	<polyline fill="none" stroke="#221F1F" stroke-width="3.3048" stroke-miterlimit="10" points="272.839,44.259 242.8,44.259 
		242.8,108.502 272.245,108.502 	"/>
	
		<line fill="none" stroke="#221F1F" stroke-width="3.3048" stroke-miterlimit="10" x1="271.058" y1="75.189" x2="243.099" y2="75.189"/>
	<g>
		<polyline fill="none" stroke="#221F1F" stroke-width="3.3048" stroke-miterlimit="10" points="82.095,109.989 102.915,43.363 
			119.024,90.226 125.814,109.989 		"/>
		
			<line fill="none" stroke="#221F1F" stroke-width="3.3048" stroke-miterlimit="10" x1="118.084" y1="89.765" x2="89.825" y2="89.765"/>
	</g>
	<path fill="none" stroke="#221F1F" stroke-width="3.3048" stroke-miterlimit="10" d="M222.483,60.32c0,0-0.3-16.358-17.256-16.358
		h-0.253c-16.955,0-17.255,16.358-17.255,16.358v33.236c0,0,0.3,16.359,17.255,16.359h6.09c11.76,0,11.969-16.359,11.969-16.359
		V81.255h-14.617"/>
	<g>
		<path fill="none" stroke="#221F1F" stroke-width="3.3048" stroke-miterlimit="10" d="M289.117,81.815h20.95
			c0,0,12.255-3.479,13.396-18.023l0.056-0.645c-0.612-15.415-13.451-19.056-13.451-19.056h-20.95v65.397"/>
		
			<line fill="none" stroke="#221F1F" stroke-width="3.3048" stroke-miterlimit="10" x1="326.746" y1="109.632" x2="312.299" y2="80.957"/>
	</g>
	<path fill="none" stroke="#221F1F" stroke-width="3.3048" stroke-miterlimit="10" d="M40.576,95.849
		c0,0,1.096,14.586,12.195,14.586h4.011c11.098,0,12.194-14.586,12.194-14.586V43.542"/>
</g>
<g>
	<path fill="#60D0E4" d="M-3.729,35.388c0,0,10.563,4.275,17.354,59.354c0,0-9.809,3.772-3.772,10.312s6.791,18.863,6.791,18.863
		s-35.713,5.281-97.833,0.754c0,0-24.898-50.803-15.09-68.408l16.348,0.503c0,0,23.641,11.82,22.635-0.754
		c0,0,4.352-0.432,5.012-0.829c0.661-0.396,5.747,9.38,19.419-6.936c0,0,21.268-8.125,28.798-12.749L-3.729,35.388z"/>
	<path fill="#60D0E4" d="M-84.8,44.697c0,0-6.433-18.487-14.567-14.643c-8.134,3.845,0.592,17.674,2.884,20.631
		C-96.483,50.686-89.459,46.104-84.8,44.697z"/>
	<path fill-rule="evenodd" clip-rule="evenodd" d="M-30.957,138.898c-0.803-1.302-2.669-1.275-4.504-1.542
		c-1.211-0.177-3.928-0.473-4.011-1.975c-0.09-1.639,2.314-2.246,3.95-2.592c3.913-0.827,7.814-0.679,12.526-0.679
		c2.019,0,4.714,0.127,4.936,1.48c0.185,1.136-0.775,1.947-1.543,2.468c-0.682,0.463-2.06,0.909-2.097,1.914
		c-0.068,1.798,3.241,1.47,2.468,3.948c-0.285,0.916-1.874,1.439-3.085,1.789c-3.84,1.11-8.353,1.477-12.773,1.852
		c-4,0.339-9.118,1.105-13.822,0.432c-1.347-0.191-3.124-0.706-3.208-1.665c-0.135-1.537,2.39-2.022,3.764-2.223
		c3.77-0.549,7.307-0.308,11.415-0.493C-34.077,141.483-31.201,141.512-30.957,138.898z"/>
	<path fill-rule="evenodd" clip-rule="evenodd" d="M-71.374,139.454c2.778-0.133,6.68,0.042,9.441,0.74
		c0.722,0.183,2.095,0.479,2.098,1.234c0.004,0.806-1.808,1.151-2.838,1.42c-5.868,1.521-11.879,1.991-18.387,2.775
		c-1.183,0.143-2.412,0.224-3.703,0.556c-0.752,0.194-2.595,0.742-2.53,1.666c0.082,1.139,3.029,0.831,4.258,0.926
		c1.581,0.122,3.58,0.314,3.702,1.48c0.208,1.987-3.717,2.075-5.677,2.221c-5.401,0.405-10.042,0.203-15.056-0.432
		c-0.977-0.123-2.209-0.354-3.208-0.74c-0.899-0.347-2.134-0.868-2.16-1.728c-0.039-1.285,1.97-1.771,3.085-2.036
		c4.14-0.982,8.652-1.358,12.958-2.283c2.734-0.587,5.427-1.633,7.651-2.529c2.428-0.979,4.726-2.248,7.22-2.962
		C-73.53,139.479-72.72,139.519-71.374,139.454z"/>
	<path fill-rule="evenodd" clip-rule="evenodd" d="M-20.159,143.773c0.644-0.065,2.397,0.007,2.406,0.863
		c0.015,1.252-3.937,1.248-4.01,0.062C-21.81,143.956-20.891,143.849-20.159,143.773z"/>
	<path fill-rule="evenodd" clip-rule="evenodd" d="M-25.219,144.822c0.839-0.078,2.244-0.031,2.284,0.864
		c0.06,1.354-4.011,1.296-3.949,0C-26.856,145.101-26.098,144.903-25.219,144.822z"/>
	<path fill-rule="evenodd" clip-rule="evenodd" d="M-31.266,145.871c0.371-0.028,1.26-0.071,1.913,0.062
		c0.237,0.048,1.207,0.405,1.234,0.74c0.053,0.635-1.292,0.874-1.912,0.925c-1.222,0.103-3.43-0.053-3.518-0.802
		C-33.635,146.059-31.983,145.924-31.266,145.871z"/>
	<path fill-rule="evenodd" clip-rule="evenodd" d="M-39.287,146.488c0.969-0.13,3.175-0.082,3.208,0.986
		c0.048,1.527-4.901,1.535-4.937,0.062C-41.034,146.741-40.039,146.589-39.287,146.488z"/>
	<path fill-rule="evenodd" clip-rule="evenodd" d="M-48.666,146.611c0.823-0.056,1.644-0.054,2.53,0.124
		c0.429,0.085,1.756,0.392,1.79,0.985c0.063,1.135-3.138,1.34-4.689,1.235c-0.945-0.062-2.708-0.428-2.715-1.172
		c-0.006-0.63,0.952-0.843,1.234-0.926C-49.843,146.662-49.468,146.667-48.666,146.611z"/>
	<path fill-rule="evenodd" clip-rule="evenodd" d="M-106.359,149.08c-0.295,0.911-3.22,1.398-4.319,0.74
		C-110.104,148.82-107.645,148.566-106.359,149.08z"/>
	<path fill-rule="evenodd" clip-rule="evenodd" d="M-105.68,150.684c-0.753,1.114-3.643,1.518-5.06,0.803
		C-109.978,150.383-107.101,149.965-105.68,150.684z"/>
	<path fill-rule="evenodd" clip-rule="evenodd" d="M-104.508,152.164c-0.805,1.013-3.649,1.514-5.06,0.742
		C-109.005,151.872-105.623,151.355-104.508,152.164z"/>
	<path fill-rule="evenodd" clip-rule="evenodd" d="M-99.325,152.906c-0.523,1.247-4.048,1.798-5.245,0.802
		C-103.939,152.396-100.666,151.979-99.325,152.906z"/>
	<path fill-rule="evenodd" clip-rule="evenodd" d="M-95.129,153.152c0.787-0.062,2.366-0.127,3.208,0.123
		c1.561,0.463,0.332,1.289-0.863,1.604c-1.231,0.323-2.566,0.476-4.135,0.37c-0.738-0.049-1.979-0.247-2.036-0.74
		c-0.068-0.585,1.127-0.873,1.542-0.988C-96.502,153.269-95.942,153.216-95.129,153.152z"/>
	<path fill-rule="evenodd" clip-rule="evenodd" d="M-82.788,153.831c-0.069,0.783-1.12,1.232-2.037,1.543
		c-0.966,0.326-2.167,0.559-3.085,0.616c-0.685,0.043-2.039-0.004-2.16-0.493c-0.181-0.731,1.466-1.299,1.975-1.481
		c1.053-0.378,2.083-0.609,3.023-0.678C-84.155,153.27-83.127,153.299-82.788,153.831z"/>
	<path fill-rule="evenodd" clip-rule="evenodd" d="M-31.204,34.743c0.069,0.012,0.034,0.062,0,0.062
		c-4.129,4.635-7.988,9.6-12.834,13.76c-0.562,0.483-1.583,1.469-2.345,1.419c-0.432-0.028-0.976-0.633-1.418-0.803
		c-2.61-0.993-5.359,1.026-5.245,3.888c-0.958,0.293-1.994,0.4-3.085,0.493c-1.037,0.089-2.242,0.352-3.271,0.247
		c-0.76-0.078-1.255-0.476-2.283-0.371c-0.473,0.049-0.845,0.358-1.419,0.432c-0.889,0.114-2.11-0.193-3.147-0.432
		c-6.56-1.51-12.15-4.92-18.573-6.293c0.792-0.483,1.794-0.756,2.715-1.111c0.158-0.298-0.319-0.778-0.185-1.049
		c15.196,1.584,28.443-2.042,39.799-5.8C-38.558,37.882-34.72,36.239-31.204,34.743z"/>
	<path fill-rule="evenodd" clip-rule="evenodd" fill="#638B18" d="M-42.496,39.185c-11.356,3.758-24.603,7.385-39.799,5.8
		c-0.134,0.271,0.342,0.751,0.185,1.049c-0.92,0.354-1.923,0.628-2.715,1.111c6.422,1.373,12.013,4.784,18.573,6.293
		c1.038,0.239,2.258,0.546,3.147,0.432c0.574-0.074,0.946-0.383,1.419-0.432c1.028-0.105,1.522,0.293,2.283,0.371
		c1.029,0.105,2.233-0.158,3.271-0.247c1.092-0.093,2.127-0.2,3.085-0.493c-0.114-2.862,2.635-4.881,5.245-3.888
		c0.443,0.17,0.987,0.774,1.418,0.803c0.762,0.05,1.783-0.937,2.345-1.419c4.846-4.16,8.706-9.125,12.834-13.76
		c0.034,0,0.069-0.049,0-0.062C-34.72,36.239-38.558,37.882-42.496,39.185z"/>
	<path fill-rule="evenodd" clip-rule="evenodd" d="M-36.942,141.613c-4.108,0.186-7.645-0.056-11.415,0.493
		c-1.375,0.2-3.899,0.686-3.764,2.223c0.084,0.959,1.861,1.474,3.208,1.665c4.704,0.674,9.822-0.093,13.822-0.432
		c4.42-0.375,8.933-0.741,12.773-1.852c1.211-0.35,2.8-0.873,3.085-1.789c0.773-2.479-2.536-2.15-2.468-3.948
		c0.038-1.005,1.416-1.451,2.097-1.914c0.768-0.521,1.728-1.332,1.543-2.468c-0.222-1.354-2.917-1.48-4.936-1.48
		c-4.711,0-8.613-0.148-12.526,0.679c-1.635,0.346-4.04,0.953-3.95,2.592c0.083,1.502,2.8,1.798,4.011,1.975
		c1.835,0.267,3.701,0.24,4.504,1.542C-31.201,141.512-34.077,141.483-36.942,141.613z"/>
	<path fill-rule="evenodd" clip-rule="evenodd" d="M-74.52,139.763c-2.494,0.714-4.792,1.982-7.22,2.962
		c-2.224,0.896-4.917,1.942-7.651,2.529c-4.306,0.925-8.818,1.301-12.958,2.283c-1.115,0.266-3.124,0.751-3.085,2.036
		c0.026,0.859,1.261,1.381,2.16,1.728c1,0.386,2.231,0.617,3.208,0.74c5.014,0.635,9.654,0.837,15.056,0.432
		c1.96-0.146,5.885-0.233,5.677-2.221c-0.122-1.166-2.122-1.358-3.702-1.48c-1.229-0.095-4.176,0.213-4.258-0.926
		c-0.065-0.924,1.777-1.472,2.53-1.666c1.292-0.332,2.52-0.413,3.703-0.556c6.508-0.784,12.52-1.255,18.387-2.775
		c1.03-0.269,2.842-0.614,2.838-1.42c-0.003-0.756-1.376-1.052-2.098-1.234c-2.761-0.698-6.663-0.873-9.441-0.74
		C-72.72,139.519-73.53,139.479-74.52,139.763z"/>
	<path fill-rule="evenodd" clip-rule="evenodd" d="M-21.763,144.698c0.073,1.187,4.025,1.19,4.01-0.062
		c-0.009-0.856-1.763-0.929-2.406-0.863C-20.891,143.849-21.81,143.956-21.763,144.698z"/>
	<path fill-rule="evenodd" clip-rule="evenodd" d="M-26.885,145.687c-0.062,1.296,4.009,1.354,3.949,0
		c-0.04-0.896-1.445-0.942-2.284-0.864C-26.098,144.903-26.856,145.101-26.885,145.687z"/>
	<path fill-rule="evenodd" clip-rule="evenodd" d="M-33.549,146.796c0.088,0.749,2.295,0.904,3.518,0.802
		c0.62-0.051,1.965-0.29,1.912-0.925c-0.027-0.335-0.997-0.692-1.234-0.74c-0.652-0.133-1.542-0.09-1.913-0.062
		C-31.983,145.924-33.635,146.059-33.549,146.796z"/>
	<path fill-rule="evenodd" clip-rule="evenodd" d="M-41.015,147.537c0.035,1.473,4.984,1.465,4.937-0.062
		c-0.034-1.068-2.239-1.116-3.208-0.986C-40.039,146.589-41.034,146.741-41.015,147.537z"/>
	<path fill-rule="evenodd" clip-rule="evenodd" d="M-50.518,146.858c-0.282,0.083-1.24,0.296-1.234,0.926
		c0.007,0.744,1.77,1.109,2.715,1.172c1.552,0.104,4.752-0.101,4.689-1.235c-0.033-0.594-1.361-0.9-1.79-0.985
		c-0.886-0.178-1.707-0.18-2.53-0.124C-49.468,146.667-49.843,146.662-50.518,146.858z"/>
	<path fill-rule="evenodd" clip-rule="evenodd" d="M-110.678,149.82c1.1,0.658,4.024,0.171,4.319-0.74
		C-107.645,148.566-110.104,148.82-110.678,149.82z"/>
	<path fill-rule="evenodd" clip-rule="evenodd" d="M-110.74,151.486c1.417,0.715,4.307,0.312,5.06-0.803
		C-107.101,149.965-109.978,150.383-110.74,151.486z"/>
	<path fill-rule="evenodd" clip-rule="evenodd" d="M-109.568,152.906c1.41,0.771,4.255,0.271,5.06-0.742
		C-105.623,151.355-109.005,151.872-109.568,152.906z"/>
	<path fill-rule="evenodd" clip-rule="evenodd" d="M-104.57,153.708c1.197,0.996,4.721,0.445,5.245-0.802
		C-100.666,151.979-103.939,152.396-104.57,153.708z"/>
	<path fill-rule="evenodd" clip-rule="evenodd" d="M-97.413,153.521c-0.415,0.115-1.61,0.403-1.542,0.988
		c0.057,0.493,1.297,0.691,2.036,0.74c1.569,0.105,2.904-0.047,4.135-0.37c1.195-0.315,2.424-1.142,0.863-1.604
		c-0.842-0.25-2.421-0.185-3.208-0.123C-95.942,153.216-96.502,153.269-97.413,153.521z"/>
	<path fill-rule="evenodd" clip-rule="evenodd" d="M-85.071,153.338c-0.941,0.068-1.97,0.3-3.023,0.678
		c-0.509,0.183-2.156,0.75-1.975,1.481c0.121,0.489,1.475,0.536,2.16,0.493c0.918-0.058,2.119-0.29,3.085-0.616
		c0.917-0.311,1.967-0.76,2.037-1.543C-83.127,153.299-84.155,153.27-85.071,153.338z"/>
	<path fill="#E1CAA2" d="M-32.024,24.95C-69.12,41.047-87.73,34.004-87.73,34.004l4.401,8.803
		c26.533,3.018,53.799-11.255,53.799-11.255l1.364-3.738c0,0-2.261,0.487-3.56-2.959L-32.024,24.95z"/>
	<path fill="#638B18" d="M-29.32,14.167l-0.472-1.603c0,0-29.897-11.695-36.687-8.111c-6.791,3.583-15.562,9.809-21.975,19.428
		l-0.094,7.64c0,0,18.423,7.64,56.399-8.833C-32.149,22.688-32.652,18.096-29.32,14.167z"/>
	<path d="M-27.021,25.048c-0.451,0.392-0.874,0.681-1.321,0.593c-1.348-0.265-1.97-2.884-1.388-5.849
		c0.582-2.965,2.148-5.155,3.498-4.89c1.297,0.255,1.92,2.688,1.448,5.514c0,0-1.436,2.635-2.116,4.485L-27.021,25.048z"/>
	<path fill="#E1CAA2" d="M-8.635,11.307c0,0-6.791-4.464-14.021,5.471c0,0-0.943-5.911-5.785-3.396c0,0,0.943-8.488,0.314-9.683
		c0,0,1.887,0.566,2.452,1.823c0,0,4.968-4.84,4.653-11.568c0,0,1.321,0.188,1.321,1.886c0,0,1.85-4.092,3.663-6.298l0.172-0.242
		c7.293-6.35,0.566,12.576,0.566,12.576s-0.392,0.939-0.793,1.446c-0.4,0.507,3.454-1.285,3.407-2.747
		c-0.047-1.462,0.483,2.063,0,2.7c0,0,6.378-5.045,6.566-7.687c0,0,1.006,2.012,0.754,3.646c0,0,5.658-4.275,5.785-6.288
		c0,0,0.691,10.877-10.061,15.027c0,0,1.761,0,3.961-0.44L-8.635,11.307z"/>
	<path fill="#638B18" d="M-5.051,24.322c0,0,22.698-5.03,10.626,3.08c-12.072,8.111-13.833,7.734-13.833,7.734
		S-5.805,31.49-5.051,24.322z"/>
	<path fill="#638B18" d="M-8.634,35.45l-20.875,9.117c0,0,6.477-5.533,4.276-8.552C-25.233,36.016-14.293,34.382-8.634,35.45z"/>
	<path fill="#60D0E4" d="M-28,33.88c5.784-16.033,8.692-17.838,8.692-17.838c2.742-2.949,6.193-4.251,8.918-3.002
		c2.359,1.081,3.626,3.823,3.637,7.137c0,0.069,0,0.14-0.001,0.209c0,0-0.435,8.086-2.698,12.676c0,0-8.425-1.195-17.479,1.195
		L-28,33.88z"/>
	<path d="M-19.74,26.715c0,0,4.526-9.008,7.288-6.926c0,0,0.679,0.815-1.086,6.745c0,0,7.289-8.918-0.271-9.145
		C-13.81,17.39-18.88,17.208-19.74,26.715z"/>
	<path d="M-90.1,44.397c0,0-5.961-9.016-6.501-7.219c-0.54,1.796,0.359,4.972,0.509,5.841c0.15,0.869-4.554-5.542-1.408-7.879
		C-94.354,32.805-90.46,40.054-90.1,44.397z"/>
	<path fill="#638B18" d="M-97.047,53.515h0.235c0,0,3.454-2.513,4.475-2.905s-1.256,3.768,4.788,3.768s-15.7,0.785-20.645-3.532
		c0,0-0.43-1.867,6.198-4.941C-101.996,45.905-97.986,53.053-97.047,53.515z"/>
	<path d="M-75.769,55.948c-6.837-3.019-11.954-3.909-11.954-3.909c-0.05,0.004-0.102,0.006-0.153,0.006
		c-1.074,0-1.946-0.697-1.946-1.556s0.872-1.556,1.946-1.556c0.091,0,0.181,0.005,0.268,0.014c0,0,5.021,0.841,12.829,4.103
		l0.849,0.351c7.262,2.688,10.186,2.759,10.186,2.759c0.979,0.083,1.238,0.083,1.368-0.012c0.13-0.095,0.943-0.412,0.943-0.412
		c1.033,0.027,1.862,0.743,1.862,1.622c0,0.846-1.451,1.767-2.428,1.844c0,0-5.375,0.424-13.486-3.159L-75.769,55.948z"/>
	<path d="M-27.161,37.836c0.017-0.085,0.025-0.173,0.025-0.264c0-0.778-0.644-1.409-1.438-1.409c-0.202,0-0.395,0.041-0.569,0.114
		c0,0-3.508,3.73-5.944,6.487c-2.436,2.758-8.392,9.272-10.886,9.565l-1.408,0.146c-0.118-0.234-0.754-0.809-0.754-0.809
		c-0.4-0.355-0.94-0.505-1.454-0.348c-0.82,0.25-1.262,1.189-0.984,2.098c0.108,0.354,0.311,0.651,0.565,0.868
		c0,0,4.124,4.177,11.224-3.247c7.101-7.423,7.746-8.186,7.746-8.186s3.609-3.932,3.843-4.871L-27.161,37.836z"/>
	<g>
		<path fill="#FFFFFF" d="M-14.754,67.066c0,7.885-6.4,14.283-14.299,14.283c-7.896,0-14.296-6.397-14.296-14.283
			c0-7.892,6.4-14.289,14.296-14.289C-21.155,52.777-14.754,59.174-14.754,67.066z"/>
		<path fill="#FFFFFF" d="M-59.144,77.504c0,7.886-6.4,14.283-14.299,14.283c-7.896,0-14.297-6.397-14.297-14.283
			c0-7.893,6.4-14.29,14.297-14.29C-65.544,63.214-59.144,69.611-59.144,77.504z"/>
		<path fill="#FFFFFF" d="M-47.238,100.401c0.377,2.137,1.257,6.664,4.275,6.286c3.019-0.377,1.887-6.413,1.887-6.413
			s-5.156-0.25-5.659,0L-47.238,100.401z"/>
		<path fill="#FFFFFF" d="M-48.998,100.994c0,0-2.768,1.179-4.977,2.621c0,0,1.089,5.624,4.77,3.945c0,0,2.415-0.532,0.354-6.187
			L-48.998,100.994z"/>
		<path fill="#FFFFFF" d="M-56.026,88.498c0,0-17.6,5.291-8.967,14.189c5.659,5.834,13.494-4.091,17.672-4.004
			c0,0,0.958-0.435,2.96-0.174c2.002,0.262,15.062,1.306,16.28-3.918c1.219-5.223-0.348-6.094-1.306-6.703
			s-7.835-4.701-18.108-1.828L-56.026,88.498z"/>
	</g>
	<circle cx="-74.702" cy="82.41" r="4.481"/>
	<ellipse cx="-30.94" cy="71.722" rx="4.481" ry="4.476"/>
	<ellipse transform="matrix(0.9801 -0.1986 0.1986 0.9801 -18.3085 -8.1092)" cx="-49.585" cy="87.228" rx="7.93" ry="4.328"/>
	<path fill="#E1CAA2" d="M-57.802,91.347c0,0-11.066,5.155-5.91,9.431c5.155,4.276,7.67-2.639,15.215-3.897
		c7.545-1.258,16.222,0.754,17.982-2.516c1.761-3.269,2.39-5.91-9.935-7.042c0,0-1.131,5.408-7.671,6.036
		C-54.658,93.988-55.789,92.855-57.802,91.347z"/>
	<path fill="#231F20" d="M29.777,115.666c0,0,18.272,3.873-8.144,7.747C21.633,123.413,27.89,120.831,29.777,115.666z"/>
	<path fill="#E1CAA2" d="M17.264,117.453c0,0-0.597-9.333-6.158-14.398c-5.561-5.064,4.668-6.653,7.846-5.264
		c3.178,1.39,16.386,10.527,4.766,22.245c0,0-4.965,3.575-6.355-2.085L17.264,117.453z"/>
	<path d="M-99.488,115.365c0,0-0.943,4.715-0.188,6.696c0,0-15.939-2.736-0.755-6.508L-99.488,115.365z"/>
	<path fill="#E1CAA2" d="M-91.849,104.708c0,0-9.787,11.58-4.716,21.03c4.15,7.734,12.543-1.036,12.732-1.32L-91.849,104.708z"/>
</g>
</svg>
