<?xml version="1.0" encoding="utf-8"?>
<!-- Generator: Adobe Illustrator 15.0.2, SVG Export Plug-In  -->
<!DOCTYPE svg PUBLIC "-//W3C//DTD SVG 1.1//EN" "http://www.w3.org/Graphics/SVG/1.1/DTD/svg11.dtd" [
	<!ENTITY ns_flows "http://ns.adobe.com/Flows/1.0/">
]>
<svg version="1.1"
	 xmlns="http://www.w3.org/2000/svg" xmlns:xlink="http://www.w3.org/1999/xlink" xmlns:a="http://ns.adobe.com/AdobeSVGViewerExtensions/3.0/"
	 x="0px" y="0px" width="230px" height="71px" viewBox="-3.67 -21.121 230 71"
	 overflow="visible" enable-background="new -3.67 -21.121 230 71" xml:space="preserve">
<defs>
	
		<pattern  x="-122.672" y="344.879" width="100" height="100" patternUnits="userSpaceOnUse" id="New_Pattern_Swatch_4" viewBox="0 -100 100 100" overflow="visible">
		<g>
			<polygon fill="none" points="0,0 100,0 100,-100 0,-100 			"/>
			<g>
				<polygon fill="none" points="0,-100 100,-100 100,0 0,0 				"/>
				<polygon fill="#4D4D4D" points="100,-100 0,-100 0,0 100,0 				"/>
			</g>
		</g>
	</pattern>
	
		<pattern  x="-122.672" y="344.879" width="100" height="99.999" patternUnits="userSpaceOnUse" id="New_Pattern_Swatch_5" viewBox="0 -99.999 100 99.999" overflow="visible">
		<g>
			<polygon fill="none" points="0,0 100,0 100,-99.999 0,-99.999 			"/>
			<g>
				<polygon fill="none" points="0,-99.999 100,-99.999 100,0 0,0 				"/>
				<polygon fill="#C1272D" points="100,-99.999 0,-99.999 0,0 100,0 				"/>
			</g>
		</g>
	</pattern>
	
		<pattern  x="-122.672" y="344.879" width="100" height="100" patternUnits="userSpaceOnUse" id="New_Pattern_Swatch_6" viewBox="0 -100 100 100" overflow="visible">
		<g>
			<polygon fill="none" points="0,0 100,0 100,-100 0,-100 			"/>
			<g>
				<polygon fill="none" points="0,-100 100,-100 100,0 0,0 				"/>
				<polygon fill="#E6E6E6" points="100,-100 0,-100 0,0 100,0 				"/>
			</g>
		</g>
	</pattern>
</defs>
<pattern  id="SVGID_1_" xlink:href="#New_Pattern_Swatch_6" patternTransform="matrix(1 0 0 -1 -58.374 -17058.2305)">
</pattern>
<path fill="url(#SVGID_1_)" d="M26.467,10.968c4.279,4.279,4.279,11.218,0,15.5l0,0l5.493,5.494c7.312-7.311,7.312-19.161,0-26.47
	c0,0,0,0,0-0.002"/>
<pattern  id="SVGID_2_" xlink:href="#New_Pattern_Swatch_5" patternTransform="matrix(1 0 0 -1 -58.374 -17058.2246)">
</pattern>
<path fill="url(#SVGID_2_)" d="M31.952,5.482c-7.311-7.31-19.161-7.308-26.469,0.001c-7.312,7.31-7.31,19.162,0,26.471
	c7.309,7.309,19.16,7.309,26.471,0l-5.493-5.496c-4.283,4.283-11.222,4.283-15.501,0c-4.278-4.279-4.278-11.218,0-15.498
	c4.281-4.281,11.218-4.281,15.501,0l0,0l5.493-5.494"/>
<pattern  id="SVGID_3_" xlink:href="#New_Pattern_Swatch_4" patternTransform="matrix(1 0 0 -1 -58.374 -17058.2305)">
</pattern>
<path fill="url(#SVGID_3_)" d="M37.047,2.882c0,0-10.168,15.121-14.708,19.095c-0.251,0.219-0.294,0.25-0.392,0.328
	c-2.109,1.742-5.227,1.48-7.012-0.59l-0.101-0.119c-1.765-2.083-1.468-5.221,0.589-7.023c0.092-0.082,0.111-0.102,0.357-0.305
	C20.444,10.44,37.046,2.89,37.046,2.89l0,0L37.047,2.882L37.047,2.882z"/>
<pattern  id="SVGID_4_" xlink:href="#New_Pattern_Swatch_5" patternTransform="matrix(0.9904 0 0 -0.9924 -54.9878 -16933.6035)">
</pattern>
<pattern  id="SVGID_5_" xlink:href="#New_Pattern_Swatch_5" patternTransform="matrix(0.9904 0 0 0.9924 2.8247 -5.3779)">
</pattern>
<path fill="url(#SVGID_4_)" stroke="url(#SVGID_5_)" stroke-width="0.2736" stroke-miterlimit="10" d="M70.848,16.279
	c0,3.373-0.842,6.041-2.524,8.002c-1.683,1.964-4.004,2.944-6.963,2.944c-2.95,0-5.267-0.98-6.949-2.944
	c-1.683-1.961-2.524-4.639-2.524-8.031c0-3.382,0.849-6.044,2.546-7.988c1.698-1.943,4.016-2.915,6.957-2.915
	c2.959,0,5.276,0.977,6.949,2.929C70.011,10.229,70.848,12.896,70.848,16.279z M53.497,16.279c0,3.043,0.677,5.396,2.031,7.059
	c1.354,1.66,3.298,2.492,5.832,2.492c2.553,0,4.505-0.824,5.853-2.472c1.35-1.647,2.024-4.007,2.024-7.079
	c0-3.062-0.674-5.41-2.024-7.043c-1.348-1.633-3.291-2.45-5.824-2.45c-2.524,0-4.471,0.824-5.839,2.471
	C54.181,10.905,53.497,13.246,53.497,16.279z"/>
<pattern  id="SVGID_6_" xlink:href="#New_Pattern_Swatch_5" patternTransform="matrix(0.9904 0 0 -0.9924 -54.9878 -16933.6035)">
</pattern>
<pattern  id="SVGID_7_" xlink:href="#New_Pattern_Swatch_5" patternTransform="matrix(0.9904 0 0 0.9924 2.8247 -5.3779)">
</pattern>
<path fill="url(#SVGID_6_)" stroke="url(#SVGID_7_)" stroke-width="0.2736" stroke-miterlimit="10" d="M83.097,27.225
	c-2.428,0-4.197-0.911-5.31-2.733h-0.102l0.043,1.222c0.039,0.717,0.058,1.502,0.058,2.354v6.019h-1.437V11.133h1.219l0.276,2.253
	h0.087c1.083-1.706,2.814-2.559,5.193-2.559c2.128,0,3.75,0.7,4.868,2.101c1.116,1.4,1.675,3.438,1.675,6.113
	c0,2.597-0.588,4.61-1.762,6.041C86.731,26.51,85.128,27.225,83.097,27.225z M83.068,25.946c1.615,0,2.866-0.601,3.75-1.803
	c0.886-1.201,1.328-2.883,1.328-5.044c0-4.642-1.673-6.963-5.02-6.963c-1.837,0-3.187,0.506-4.047,1.519s-1.291,2.663-1.291,4.95
	v0.465c0,2.472,0.413,4.235,1.241,5.291C79.854,25.417,81.202,25.946,83.068,25.946z"/>
<pattern  id="SVGID_8_" xlink:href="#New_Pattern_Swatch_5" patternTransform="matrix(0.9904 0 0 -0.9924 -54.9878 -16933.6035)">
</pattern>
<pattern  id="SVGID_9_" xlink:href="#New_Pattern_Swatch_5" patternTransform="matrix(0.9904 0 0 0.9924 2.8247 -5.3779)">
</pattern>
<path fill="url(#SVGID_8_)" stroke="url(#SVGID_9_)" stroke-width="0.2736" stroke-miterlimit="10" d="M101.396,27.225
	c-2.292,0-4.08-0.707-5.361-2.122c-1.282-1.415-1.922-3.397-1.922-5.946c0-2.52,0.619-4.538,1.857-6.055s2.906-2.275,5.005-2.275
	c1.857,0,3.322,0.649,4.396,1.948c1.073,1.299,1.61,3.062,1.61,5.292v1.163H95.622c0.019,2.171,0.524,3.828,1.516,4.972
	c0.991,1.144,2.411,1.715,4.258,1.715c0.899,0,1.689-0.062,2.373-0.188c0.681-0.126,1.544-0.397,2.589-0.814v1.309
	c-0.89,0.388-1.712,0.652-2.466,0.792C103.137,27.155,102.305,27.225,101.396,27.225z M100.975,12.107
	c-1.518,0-2.737,0.501-3.656,1.504s-1.456,2.45-1.61,4.339h9.749c0-1.832-0.396-3.264-1.189-4.296
	C103.476,12.623,102.377,12.107,100.975,12.107z"/>
<pattern  id="SVGID_10_" xlink:href="#New_Pattern_Swatch_5" patternTransform="matrix(0.9904 0 0 -0.9924 -54.9878 -16933.6035)">
</pattern>
<pattern  id="SVGID_11_" xlink:href="#New_Pattern_Swatch_5" patternTransform="matrix(0.9904 0 0 0.9924 2.8247 -5.3779)">
</pattern>
<path fill="url(#SVGID_10_)" stroke="url(#SVGID_11_)" stroke-width="0.2736" stroke-miterlimit="10" d="M123.321,26.934V16.686
	c0-1.589-0.333-2.745-1.001-3.467c-0.667-0.722-1.702-1.083-3.104-1.083c-1.886,0-3.267,0.478-4.143,1.432
	c-0.875,0.955-1.312,2.502-1.312,4.645v8.722h-1.436V11.133h1.219l0.275,2.166h0.087c1.025-1.647,2.849-2.471,5.47-2.471
	c3.578,0,5.367,1.924,5.367,5.771v10.335H123.321z"/>
<pattern  id="SVGID_12_" xlink:href="#New_Pattern_Swatch_4" patternTransform="matrix(0.9904 0 0 -0.9924 -54.9878 -16933.6094)">
</pattern>
<pattern  id="SVGID_13_" xlink:href="#New_Pattern_Swatch_4" patternTransform="matrix(0.9904 0 0 0.9924 2.8247 -5.3779)">
</pattern>
<path fill="url(#SVGID_12_)" stroke="url(#SVGID_13_)" stroke-width="0.2736" stroke-miterlimit="10" d="M141.248,6.713
	c-2.66,0-4.754,0.853-6.281,2.559c-1.528,1.706-2.293,4.042-2.293,7.007c0,3.033,0.721,5.389,2.162,7.064
	c1.441,1.677,3.501,2.516,6.18,2.516c1.78,0,3.414-0.229,4.904-0.684v1.309c-1.402,0.494-3.153,0.741-5.252,0.741
	c-2.979,0-5.324-0.964-7.036-2.893s-2.568-4.623-2.568-8.083c0-2.161,0.408-4.065,1.226-5.713s1.992-2.919,3.526-3.816
	c1.532-0.896,3.314-1.344,5.346-1.344c2.069,0,3.922,0.387,5.557,1.163l-0.595,1.337C144.575,7.101,142.95,6.713,141.248,6.713z"/>
<pattern  id="SVGID_14_" xlink:href="#New_Pattern_Swatch_4" patternTransform="matrix(0.9904 0 0 -0.9924 -54.9878 -16933.6094)">
</pattern>
<pattern  id="SVGID_15_" xlink:href="#New_Pattern_Swatch_4" patternTransform="matrix(0.9904 0 0 0.9924 2.8247 -5.3779)">
</pattern>
<path fill="url(#SVGID_14_)" stroke="url(#SVGID_15_)" stroke-width="0.2736" stroke-miterlimit="10" d="M156.655,27.225
	c-2.292,0-4.08-0.707-5.361-2.122s-1.922-3.397-1.922-5.946c0-2.52,0.619-4.538,1.857-6.055c1.237-1.517,2.906-2.275,5.005-2.275
	c1.857,0,3.322,0.649,4.396,1.948c1.074,1.299,1.61,3.062,1.61,5.292v1.163h-11.359c0.02,2.171,0.524,3.828,1.516,4.972
	s2.411,1.715,4.259,1.715c0.899,0,1.689-0.062,2.372-0.188c0.681-0.126,1.545-0.397,2.589-0.814v1.309
	c-0.89,0.388-1.712,0.652-2.466,0.792C158.396,27.155,157.564,27.225,156.655,27.225z M156.234,12.107
	c-1.519,0-2.737,0.501-3.656,1.504s-1.455,2.45-1.61,4.339h9.749c0-1.832-0.396-3.264-1.189-4.296
	C158.734,12.623,157.637,12.107,156.234,12.107z"/>
<pattern  id="SVGID_16_" xlink:href="#New_Pattern_Swatch_4" patternTransform="matrix(0.9904 0 0 -0.9924 -54.9878 -16933.6094)">
</pattern>
<pattern  id="SVGID_17_" xlink:href="#New_Pattern_Swatch_4" patternTransform="matrix(0.9904 0 0 0.9924 2.8247 -5.3779)">
</pattern>
<path fill="url(#SVGID_16_)" stroke="url(#SVGID_17_)" stroke-width="0.2736" stroke-miterlimit="10" d="M176.598,26.934V16.686
	c0-1.589-0.333-2.745-1.001-3.467c-0.667-0.722-1.702-1.083-3.104-1.083c-1.886,0-3.267,0.478-4.143,1.432
	c-0.875,0.955-1.312,2.502-1.312,4.645v8.722h-1.436V11.133h1.219l0.275,2.166h0.087c1.025-1.647,2.849-2.471,5.47-2.471
	c3.578,0,5.367,1.924,5.367,5.771v10.335H176.598z"/>
<pattern  id="SVGID_18_" xlink:href="#New_Pattern_Swatch_4" patternTransform="matrix(0.9904 0 0 -0.9924 -54.9878 -16933.6094)">
</pattern>
<pattern  id="SVGID_19_" xlink:href="#New_Pattern_Swatch_4" patternTransform="matrix(0.9904 0 0 0.9924 2.8247 -5.3779)">
</pattern>
<path fill="url(#SVGID_18_)" stroke="url(#SVGID_19_)" stroke-width="0.2736" stroke-miterlimit="10" d="M192.904,22.821
	c0,1.414-0.537,2.503-1.61,3.263c-1.073,0.762-2.597,1.142-4.569,1.142c-2.108,0-3.782-0.324-5.02-0.974v-1.556
	c1.586,0.795,3.259,1.191,5.02,1.191c1.557,0,2.738-0.26,3.547-0.776c0.807-0.52,1.211-1.21,1.211-2.072
	c0-0.795-0.322-1.464-0.965-2.006c-0.644-0.543-1.699-1.076-3.17-1.6c-1.576-0.572-2.684-1.063-3.322-1.475
	c-0.638-0.412-1.119-0.877-1.442-1.396c-0.325-0.519-0.486-1.151-0.486-1.897c0-1.182,0.495-2.117,1.486-2.805
	c0.991-0.688,2.377-1.032,4.157-1.032c1.702,0,3.316,0.32,4.845,0.959l-0.536,1.308c-1.548-0.64-2.984-0.959-4.309-0.959
	c-1.287,0-2.307,0.213-3.062,0.64s-1.132,1.018-1.132,1.773c0,0.824,0.292,1.483,0.877,1.977c0.586,0.494,1.729,1.047,3.432,1.657
	c1.422,0.514,2.457,0.977,3.105,1.388c0.647,0.412,1.133,0.879,1.458,1.403C192.742,21.498,192.904,22.113,192.904,22.821z"/>
<pattern  id="SVGID_20_" xlink:href="#New_Pattern_Swatch_4" patternTransform="matrix(0.9904 0 0 -0.9924 -54.9878 -16933.6094)">
</pattern>
<pattern  id="SVGID_21_" xlink:href="#New_Pattern_Swatch_4" patternTransform="matrix(0.9904 0 0 0.9924 2.8247 -5.3779)">
</pattern>
<path fill="url(#SVGID_20_)" stroke="url(#SVGID_21_)" stroke-width="0.2736" stroke-miterlimit="10" d="M197.223,11.133v10.234
	c0,1.59,0.334,2.745,1.001,3.467c0.668,0.723,1.702,1.083,3.104,1.083c1.877,0,3.257-0.475,4.143-1.425
	c0.884-0.949,1.327-2.495,1.327-4.637v-8.722h1.422v15.801h-1.219l-0.261-2.181h-0.088c-1.024,1.647-2.848,2.472-5.469,2.472
	c-3.588,0-5.383-1.924-5.383-5.771V11.133H197.223z"/>
<pattern  id="SVGID_22_" xlink:href="#New_Pattern_Swatch_4" patternTransform="matrix(0.9904 0 0 -0.9924 -54.9878 -16933.6094)">
</pattern>
<pattern  id="SVGID_23_" xlink:href="#New_Pattern_Swatch_4" patternTransform="matrix(0.9904 0 0 0.9924 2.8247 -5.3779)">
</pattern>
<path fill="url(#SVGID_22_)" stroke="url(#SVGID_23_)" stroke-width="0.2736" stroke-miterlimit="10" d="M223.278,22.821
	c0,1.414-0.537,2.503-1.61,3.263c-1.073,0.762-2.597,1.142-4.57,1.142c-2.108,0-3.781-0.324-5.02-0.974v-1.556
	c1.587,0.795,3.26,1.191,5.02,1.191c1.558,0,2.739-0.26,3.548-0.776c0.807-0.52,1.211-1.21,1.211-2.072
	c0-0.795-0.322-1.464-0.965-2.006c-0.644-0.543-1.699-1.076-3.17-1.6c-1.576-0.572-2.684-1.063-3.322-1.475
	c-0.638-0.412-1.12-0.877-1.442-1.396c-0.325-0.519-0.486-1.151-0.486-1.897c0-1.182,0.495-2.117,1.486-2.805
	c0.991-0.688,2.377-1.032,4.156-1.032c1.702,0,3.317,0.32,4.846,0.959l-0.537,1.308c-1.547-0.64-2.983-0.959-4.309-0.959
	c-1.286,0-2.307,0.213-3.061,0.64c-0.755,0.426-1.132,1.018-1.132,1.773c0,0.824,0.292,1.483,0.877,1.977s1.729,1.047,3.432,1.657
	c1.422,0.514,2.457,0.977,3.104,1.388c0.648,0.412,1.134,0.879,1.459,1.403C223.116,21.498,223.278,22.113,223.278,22.821z"/>
</svg>
