<?xml version="1.0" encoding="utf-8"?>
<!-- Generator: Adobe Illustrator 15.0.2, SVG Export Plug-In  -->
<!DOCTYPE svg PUBLIC "-//W3C//DTD SVG 1.1//EN" "http://www.w3.org/Graphics/SVG/1.1/DTD/svg11.dtd" [
	<!ENTITY ns_flows "http://ns.adobe.com/Flows/1.0/">
]>
<svg version="1.1"
	 xmlns="http://www.w3.org/2000/svg" xmlns:xlink="http://www.w3.org/1999/xlink" xmlns:a="http://ns.adobe.com/AdobeSVGViewerExtensions/3.0/"
	 x="0px" y="0px" width="444px" height="338px" viewBox="-4.649 -0.667 444 338"
	 overflow="visible" enable-background="new -4.649 -0.667 444 338" xml:space="preserve">
<defs>
</defs>
<path fill="#DA4E31" d="M217.102,0C146.411,0,89.101,57.304,89.101,127.997c0,70.69,57.311,127.999,128.001,127.999
	s127.999-57.309,127.999-127.999C345.101,57.304,287.79,0,217.102,0L217.102,0z M217.102,239.56
	c-20.112,0-36.419-13.436-36.419-30.004h72.838C253.521,226.122,237.214,239.56,217.102,239.56L217.102,239.56z M277.255,199.62
	H156.942v-21.816h120.314v21.816H277.255z M276.823,166.575H157.286c-0.398-0.459-0.805-0.91-1.188-1.375
	c-12.315-14.954-15.216-22.761-18.032-30.717c-0.048-0.262,14.934,3.062,25.557,5.451c0,0,5.466,1.265,13.457,2.722
	c-7.672-8.995-12.229-20.429-12.229-32.116c0-25.658,19.679-48.08,12.579-66.202c6.91,0.562,14.301,14.583,14.8,36.505
	c7.346-10.151,10.42-28.689,10.42-40.056c0-11.769,7.755-25.439,15.512-25.906c-6.914,11.396,1.791,21.165,9.529,45.4
	c2.903,9.104,2.533,24.423,4.773,34.138c0.743-20.178,4.213-49.62,17.014-59.784c-5.646,12.801,0.836,28.818,5.27,36.519
	c7.154,12.423,11.491,21.836,11.491,39.638c0,11.936-4.407,23.173-11.841,31.958c8.452-1.586,14.289-3.016,14.289-3.016
	l27.449-5.355C296.138,134.376,292.149,150.779,276.823,166.575L276.823,166.575z"/>
<path fill="#E6522C" d="M0,269.169c3.722-0.621,8.597-1.152,14.8-1.152c7.622,0,13.205,1.772,16.75,4.963
	c3.19,2.836,5.229,7.178,5.229,12.496c0,5.405-1.595,9.659-4.608,12.762c-4.165,4.342-10.723,6.558-18.256,6.558
	c-2.305,0-4.432-0.089-6.204-0.532v23.929H0V269.169z M7.71,297.971c1.684,0.443,3.811,0.62,6.381,0.62
	c9.306,0,14.978-4.607,14.978-12.673c0-7.976-5.672-11.786-14.091-11.786c-3.368,0-5.938,0.266-7.268,0.62V297.971z"/>
<path fill="#E6522C" d="M45.468,298.68c0-5.052-0.088-9.394-0.354-13.382h6.824l0.354,8.508h0.266
	c1.95-5.761,6.735-9.395,11.964-9.395c0.797,0,1.418,0.089,2.127,0.178v7.355c-0.797-0.177-1.595-0.177-2.659-0.177
	c-5.495,0-9.394,4.076-10.458,9.926c-0.177,1.063-0.266,2.393-0.266,3.634v22.864h-7.799V298.68z"/>
<path fill="#E6522C" d="M112.381,306.39c0,15.864-11.078,22.776-21.358,22.776c-11.521,0-20.561-8.508-20.561-22.067
	c0-14.268,9.483-22.688,21.27-22.688C104.051,284.411,112.381,293.362,112.381,306.39z M78.438,306.833
	c0,9.395,5.317,16.484,12.939,16.484c7.444,0,13.028-7.002,13.028-16.661c0-7.268-3.634-16.396-12.851-16.396
	C82.427,290.261,78.438,298.769,78.438,306.833z"/>
<path fill="#E6522C" d="M122.222,296.907c0-4.52-0.177-8.064-0.354-11.609h6.824l0.354,7.001h0.266
	c2.393-4.076,6.381-7.888,13.56-7.888c5.761,0,10.191,3.545,12.053,8.597h0.177c1.33-2.481,3.103-4.254,4.875-5.583
	c2.57-1.949,5.317-3.014,9.394-3.014c5.761,0,14.18,3.723,14.18,18.611v25.169h-7.621v-24.194c0-8.33-3.103-13.205-9.306-13.205
	c-4.52,0-7.888,3.279-9.306,7.002c-0.354,1.152-0.62,2.481-0.62,3.899v26.498h-7.621v-25.7c0-6.824-3.014-11.699-8.951-11.699
	c-4.786,0-8.42,3.9-9.66,7.799c-0.443,1.064-0.62,2.482-0.62,3.812v25.789h-7.622V296.907z"/>
<path fill="#E6522C" d="M200.481,308.163c0.178,10.546,6.824,14.889,14.712,14.889c5.583,0,9.04-0.976,11.876-2.216l1.418,5.583
	c-2.748,1.24-7.533,2.747-14.357,2.747c-13.205,0-21.092-8.773-21.092-21.712c0-12.939,7.621-23.043,20.117-23.043
	c14.091,0,17.725,12.23,17.725,20.118c0,1.595-0.089,2.747-0.266,3.634H200.481z M223.347,302.579
	c0.089-4.874-2.038-12.584-10.812-12.584c-7.976,0-11.344,7.178-11.964,12.584H223.347z"/>
<path fill="#E6522C" d="M249.937,275.018v10.28h11.167v5.938h-11.167v23.131c0,5.317,1.507,8.33,5.85,8.33
	c2.127,0,3.367-0.177,4.52-0.531l0.354,5.938c-1.507,0.532-3.899,1.063-6.913,1.063c-3.633,0-6.558-1.24-8.419-3.278
	c-2.127-2.394-3.013-6.204-3.013-11.256v-23.396h-6.646v-5.938h6.646v-7.977L249.937,275.018z"/>
<path fill="#E6522C" d="M269.879,265.269h7.799v26.854h0.177c1.241-2.216,3.19-4.254,5.584-5.584
	c2.304-1.329,5.051-2.127,7.976-2.127c5.761,0,14.978,3.545,14.978,18.257v25.523h-7.799v-24.638c0-6.912-2.57-12.673-9.926-12.673
	c-5.052,0-8.951,3.545-10.458,7.71c-0.442,1.152-0.531,2.305-0.531,3.723v25.878h-7.799V265.269z"/>
<path fill="#E6522C" d="M323.411,308.163c0.177,10.546,6.823,14.889,14.711,14.889c5.583,0,9.039-0.976,11.875-2.216l1.418,5.583
	c-2.747,1.24-7.532,2.747-14.356,2.747c-13.205,0-21.093-8.773-21.093-21.712c0-12.939,7.622-23.043,20.118-23.043
	c14.091,0,17.725,12.23,17.725,20.118c0,1.595-0.089,2.747-0.267,3.634H323.411z M346.275,302.579
	c0.089-4.874-2.038-12.584-10.812-12.584c-7.977,0-11.344,7.178-11.965,12.584H346.275z"/>
<path fill="#E6522C" d="M399.364,316.404c0,4.521,0.088,8.419,0.354,11.787h-6.912l-0.443-7.001h-0.177
	c-1.95,3.456-6.559,7.976-14.18,7.976c-6.735,0-14.8-3.811-14.8-18.788v-25.08h7.799v23.662c0,8.153,2.569,13.736,9.57,13.736
	c5.229,0,8.863-3.633,10.281-7.178c0.442-1.063,0.709-2.481,0.709-3.988v-26.232h7.799V316.404z"/>
<path fill="#E6522C" d="M411.243,320.304c2.393,1.418,6.469,3.014,10.369,3.014c5.583,0,8.241-2.748,8.241-6.381
	c0-3.723-2.216-5.672-7.888-7.799c-7.799-2.836-11.432-7.002-11.432-12.142c0-6.913,5.672-12.585,14.8-12.585
	c4.343,0,8.153,1.152,10.458,2.659l-1.861,5.672c-1.684-1.063-4.786-2.57-8.773-2.57c-4.609,0-7.09,2.659-7.09,5.85
	c0,3.545,2.48,5.14,8.064,7.355c7.355,2.747,11.255,6.47,11.255,12.851c0,7.621-5.938,12.938-15.952,12.938
	c-4.697,0-9.039-1.24-12.053-3.013L411.243,320.304z"/>
</svg>
