<?xml version="1.0" encoding="utf-8"?>
<!-- Generator: Adobe Illustrator 15.0.2, SVG Export Plug-In . SVG Version: 6.00 Build 0)  -->
<!DOCTYPE svg PUBLIC "-//W3C//DTD SVG 1.1//EN" "http://www.w3.org/Graphics/SVG/1.1/DTD/svg11.dtd">
<svg version="1.1" id="Layer_1" xmlns="http://www.w3.org/2000/svg" xmlns:xlink="http://www.w3.org/1999/xlink" x="0px" y="0px"
	 width="443.52px" height="337.68px" viewBox="12.24 155.16 443.52 337.68" enable-background="new 12.24 155.16 443.52 337.68"
	 xml:space="preserve">
<g>
	<g>
		<g>
			<path fill="#666666" d="M23.848,364.443c-6.76,0-11.48-2.041-11.48-2.041v-5.868c0,0,7.144,2.296,11.353,2.296
				c3.699,0,7.398-0.638,7.398-5.229c0-3.444-2.551-4.209-5.74-5.103l-2.934-0.765c-3.827-1.147-10.205-2.679-10.205-10.46
				c0-8.674,7.015-10.843,14.287-10.843c6.505,0,10.204,2.169,10.204,2.169v5.74c0,0-4.847-2.297-10.46-2.297
				c-4.591,0-7.525,0.894-7.525,4.848c0,3.444,2.678,4.209,5.868,5.103l3.571,1.02c4.209,1.148,9.567,3.573,9.567,10.46
				C37.879,362.146,31.501,364.443,23.848,364.443z"/>
			<path fill="#666666" d="M62.498,364.443c-7.143,0-17.092-2.297-17.092-19.007c0-16.327,10.077-19.006,17.092-19.006
				c6.634,0,17.093,2.296,17.093,19.006C79.591,362.402,69.258,364.443,62.498,364.443z M62.498,331.533
				c-3.826,0-10.204,1.147-10.204,13.903c0,12.884,7.398,13.776,10.204,13.776c3.444,0,10.205-1.403,10.205-13.776
				C72.575,332.554,66.197,331.533,62.498,331.533z"/>
			<path fill="#666666" d="M88.52,363.805v-48.727h6.888v48.727H88.52z"/>
			<path fill="#666666" d="M129.594,363.805l-0.638-4.72c0,0-4.209,5.485-11.99,5.485c-5.612,0-11.735-2.041-11.735-11.226
				c0-10.204,9.567-12.118,15.435-12.118h8.036v-3.188c0-4.721-2.806-5.869-7.653-5.869c-5.868,0-12.756,2.552-12.756,2.552v-5.612
				c0,0,6.25-2.552,13.776-2.552c8.036,0,13.521,2.935,13.521,12.629v24.746h-5.995V363.805z M128.701,345.31l-6.633,0.127
				c-6.25,0.127-10.077,1.786-10.077,7.653c0,4.72,2.934,6.123,6.633,6.123c5.102,0,10.077-4.719,10.077-4.719V345.31z"/>
			<path fill="#666666" d="M160.59,332.681c-4.082,0-7.271,4.465-7.271,4.465v26.659h-6.888v-36.735h5.485l0.893,5.101
				c0,0,2.295-5.739,8.546-5.739c3.571,0,4.974,1.021,4.974,1.021v6.25C166.33,333.701,164.162,332.681,160.59,332.681z"/>
			<path fill="#666666" d="M220.925,363.805h-9.567l-5.74-19.517c-1.531-5.229-3.699-13.775-3.699-13.775s-2.296,8.674-3.827,13.648
				l-5.613,19.644h-9.566l-9.694-36.735h7.909l4.464,21.047c1.021,4.847,2.168,12.5,2.168,12.5s1.403-7.653,2.934-12.5l6.25-21.047
				h9.95l6.25,21.047c1.403,4.719,2.934,12.5,2.934,12.5s1.148-7.016,2.296-12.5l4.465-21.047h7.781L220.925,363.805z"/>
			<path fill="#666666" d="M239.294,363.805v-36.863h6.888v36.863H239.294z"/>
			<path fill="#666666" d="M282.664,363.805v-25.128c0-4.593-1.914-6.251-6.635-6.251c-6.121,0-12.117,4.592-12.117,4.592v26.787
				h-6.888v-36.735h5.357l1.403,5.229c0,0,6.123-5.867,13.903-5.867c6.762,0,11.862,2.934,11.862,12.373v25.001H282.664z"/>
			<path fill="#666666" d="M325.522,363.805l-0.766-4.592c0,0-3.825,5.357-11.862,5.357c-5.74,0-15.179-2.552-15.179-19.007
				c0-16.709,11.735-19.006,16.582-19.006c6.634,0,9.694,3.699,9.694,3.699v-15.179h6.888v48.727H325.522z M323.992,335.615
				c0,0-3.826-3.699-9.057-3.699c-5.103,0-10.332,2.04-10.332,13.521c0,12.118,5.357,13.521,9.694,13.521
				c4.975,0,9.694-4.21,9.694-4.21V335.615z"/>
			<path fill="#666666" d="M352.183,364.443c-6.761,0-11.48-2.041-11.48-2.041v-5.868c0,0,7.144,2.296,11.354,2.296
				c3.698,0,7.397-0.638,7.397-5.229c0-3.444-2.551-4.209-5.739-5.103l-2.934-0.765c-3.827-1.147-10.206-2.679-10.206-10.46
				c0-8.674,7.017-10.843,14.287-10.843c6.505,0,10.204,2.169,10.204,2.169v5.74c0,0-4.847-2.297-10.46-2.297
				c-4.591,0-7.524,0.894-7.524,4.848c0,3.444,2.678,4.209,5.867,5.103l3.571,1.02c4.209,1.148,9.567,3.573,9.567,10.46
				C366.214,362.146,359.964,364.443,352.183,364.443z"/>
		</g>
		<g>
			<path fill="#F99D1C" d="M398.486,304.746c0.383-0.128,0.638-0.128,0.894-0.256c7.015-2.041,13.775-4.719,20.664-7.525
				c6.633-2.807,13.138-6.123,19.006-10.842c5.868-4.847,10.587-11.098,13.267-18.751c0.382-1.02,1.147-2.679,1.147-3.827
				c-9.185,12.628-45.794,13.904-45.794,13.904l8.675-7.909c-34.696,0.128-58.932,14.797-70.029,22.706
				c14.159,1.531,27.042,7.526,37.119,16.583C388.409,307.297,393.512,306.149,398.486,304.746z"/>
			<path fill="#F99D1C" d="M455.76,303.47c0,0-33.675-2.551-68.754,8.674c4.593,4.847,8.547,10.46,11.608,16.456
				C416.982,318.522,442.622,305.383,455.76,303.47z"/>
			<path fill="#F99D1C" d="M400.909,333.956c2.17,5.485,3.572,11.354,4.21,17.477l32.146-33.038L400.909,333.956z"/>
		</g>
	</g>
</g>
</svg>
