<?xml version="1.0" standalone="no"?>
<!DOCTYPE svg PUBLIC "-//W3C//DTD SVG 20010904//EN"
 "http://www.w3.org/TR/2001/REC-SVG-20010904/DTD/svg10.dtd">
<svg version="1.0" xmlns="http://www.w3.org/2000/svg"
 width="700.000000pt" height="700.000000pt" viewBox="0 0 700.000000 700.000000"
 preserveAspectRatio="xMidYMid meet">
<metadata>
Created by potrace 1.11, written by Peter Selinger 2001-2013
</metadata>
<g transform="translate(0.000000,700.000000) scale(0.100000,-0.100000)"
fill="#000000" stroke="none">
<path d="M3308 6895 c-2 -2 -48 -6 -102 -9 -54 -4 -102 -8 -105 -10 -3 -2 -34
-7 -68 -10 -33 -3 -108 -15 -165 -26 -56 -12 -114 -23 -128 -26 -111 -22 -349
-97 -514 -163 -913 -365 -1635 -1132 -1949 -2071 -87 -258 -142 -529 -165
-800 -14 -174 -7 -550 14 -695 36 -253 79 -448 143 -642 62 -187 99 -276 190
-458 71 -144 108 -208 196 -347 184 -290 505 -633 796 -849 191 -142 290 -205
494 -310 318 -165 621 -265 1010 -335 199 -35 599 -51 820 -32 104 9 308 36
359 48 23 5 55 11 72 14 59 11 230 57 339 92 320 104 636 262 912 456 200 141
498 413 649 592 310 369 552 836 678 1306 28 105 72 317 81 395 4 28 8 60 10
73 26 161 27 662 1 812 -2 14 -7 50 -11 80 -9 85 -51 288 -84 410 -93 347
-248 685 -459 1003 l-85 128 57 82 c32 45 124 179 207 297 82 118 153 222 159
230 5 8 40 58 76 110 71 103 91 135 77 127 -4 -2 -30 -15 -58 -27 -27 -12 -97
-44 -153 -71 -57 -27 -105 -49 -107 -49 -1 0 -112 -52 -246 -116 -134 -64
-273 -130 -307 -146 l-64 -30 -41 38 c-23 22 -46 44 -52 50 -60 63 -326 266
-462 352 -351 222 -742 381 -1138 460 -110 22 -159 31 -208 37 -17 2 -57 7
-87 11 -30 4 -71 9 -90 11 -41 5 -487 12 -492 8z m447 -1420 c101 -13 277 -55
380 -90 101 -34 306 -125 333 -147 10 -9 -7 -22 -74 -60 -48 -26 -88 -48 -91
-48 -3 0 -155 -83 -328 -180 -36 -20 -189 -107 -268 -153 -26 -15 -209 -126
-281 -170 -137 -84 -400 -267 -462 -322 -6 -5 -35 -30 -64 -55 -59 -51 -143
-152 -187 -225 -39 -66 -89 -193 -109 -280 -16 -68 -23 -261 -11 -315 3 -14 8
-43 12 -65 20 -111 78 -237 163 -350 90 -122 201 -216 322 -275 36 -17 72 -35
81 -39 8 -5 55 -19 105 -32 123 -32 340 -33 458 0 189 51 328 144 562 376 249
247 528 575 917 1080 59 77 112 141 116 143 5 2 17 -21 26 -50 9 -29 20 -62
25 -73 29 -71 73 -251 91 -370 14 -96 19 -377 8 -460 -4 -33 -10 -85 -14 -115
-10 -80 -61 -281 -97 -380 -101 -279 -299 -582 -493 -755 -37 -33 -75 -67 -84
-76 -70 -69 -270 -200 -411 -269 -145 -71 -256 -112 -405 -149 -270 -68 -609
-75 -865 -20 -531 115 -940 384 -1255 826 -129 181 -278 536 -310 738 -3 17
-10 62 -16 100 -18 110 -20 445 -4 545 7 47 16 99 18 115 10 61 49 203 84 300
30 84 63 156 147 322 6 13 14 23 19 23 4 0 7 5 7 12 0 16 92 149 160 233 73
89 205 218 295 290 71 56 182 135 190 135 3 0 33 17 67 38 35 21 79 45 98 54
125 58 164 74 240 100 83 28 98 33 140 42 11 3 46 12 78 20 32 8 85 18 117 21
33 4 78 10 100 14 48 9 399 6 470 -4z"/>
</g>
</svg>
