<?xml version="1.0" encoding="utf-8"?>
<!-- Generator: Adobe Illustrator 15.0.2, SVG Export Plug-In . SVG Version: 6.00 Build 0)  -->
<!DOCTYPE svg PUBLIC "-//W3C//DTD SVG 1.1//EN" "http://www.w3.org/Graphics/SVG/1.1/DTD/svg11.dtd">
<svg version="1.1" id="Layer_1" xmlns="http://www.w3.org/2000/svg" xmlns:xlink="http://www.w3.org/1999/xlink" x="0px" y="0px"
	 width="80px" height="80px" viewBox="0 0 80 80" enable-background="new 0 0 80 80" xml:space="preserve">
<path fill="#FFFFFF" d="M0,0l36.8,36.8h4.8l3.84,8.64L80,80V0H0z"/>
<path fill="#151513" d="M40.96,34.88c-4.8-2.88-2.88-6.08-2.88-6.08c0.96-2.24,0.64-3.52,0.64-3.52c-0.32-2.24,0.96-0.64,0.96-0.64
	c1.28,1.6,0.64,3.52,0.64,3.52c-0.96,3.2,1.6,4.8,2.88,5.12"/>
<path fill="#151513" d="M36.8,36.8c0,0,1.28,0.64,1.6,0l4.48-4.48c0.96-0.64,1.92-0.96,2.56-0.96c-2.56-3.52-4.799-7.68,0.641-13.12
	c1.6-1.6,3.199-2.24,5.12-2.24c0.319-0.64,0.96-2.24,3.84-3.52c0,0,1.601,0.96,2.239,5.12c1.281,0.64,2.561,1.6,3.841,2.88
	s2.239,2.56,2.88,3.84c4.48,0.96,5.439,2.24,5.439,2.24c-1.279,2.56-2.879,3.52-3.52,3.52c0,1.92-0.641,3.52-2.24,5.12
	c-5.119,5.12-9.6,3.2-13.119,0.64c0,0.96-0.32,2.24-1.601,3.52l-3.84,3.52c-0.32,0.32,0.319,1.601,0.319,1.601L36.8,36.8z"/>
<path fill="none" d="M-6.006,6.006c80,80,80,80,80,80"/>
<text transform="matrix(0.7071 0.7071 -0.7071 0.7071 7.4937 19.5029)"><tspan x="0" y="0" font-family="'MyriadPro-Regular'" font-size="12">F</tspan><tspan x="5.83" y="0" font-family="'MyriadPro-Regular'" font-size="12">o</tspan><tspan x="12.422" y="0" font-family="'MyriadPro-Regular'" font-size="12">r</tspan><tspan x="16.357" y="0" font-family="'MyriadPro-Regular'" font-size="12">k</tspan><tspan x="21.976" y="0" font-family="'MyriadPro-Regular'" font-size="12"> </tspan><tspan x="24.52" y="0" font-family="'MyriadPro-Regular'" font-size="12">o</tspan><tspan x="31.121" y="0" font-family="'MyriadPro-Regular'" font-size="12">n</tspan><tspan x="37.784" y="0" font-family="'MyriadPro-Regular'" font-size="12"> </tspan><tspan x="40.314" y="0" font-family="'MyriadPro-Regular'" font-size="12">G</tspan><tspan x="48.081" y="0" font-family="'MyriadPro-Regular'" font-size="12">i</tspan><tspan x="50.903" y="0" font-family="'MyriadPro-Regular'" font-size="12">t</tspan><tspan x="54.867" y="0" font-family="'MyriadPro-Regular'" font-size="12">h</tspan><tspan x="61.537" y="0" font-family="'MyriadPro-Regular'" font-size="12">u</tspan><tspan x="68.129" y="0" font-family="'MyriadPro-Regular'" font-size="12">b</tspan></text>
</svg>
