<?xml version="1.0" encoding="utf-8"?>
<!-- Generator: Adobe Illustrator 15.0.2, SVG Export Plug-In . SVG Version: 6.00 Build 0)  -->
<!DOCTYPE svg PUBLIC "-//W3C//DTD SVG 1.1//EN" "http://www.w3.org/Graphics/SVG/1.1/DTD/svg11.dtd">
<svg version="1.1" xmlns="http://www.w3.org/2000/svg" xmlns:xlink="http://www.w3.org/1999/xlink" x="0px" y="0px"
	 width="72.563px" height="71.841px" viewBox="0 0 72.563 71.841" enable-background="new 0 0 72.563 71.841" xml:space="preserve">
<g id="Layer_1">
	<rect x="-174.032" y="-114.319" fill="#4D4D4D" width="100" height="100"/>
	<rect x="-174.032" y="-5.766" fill="#C1272D" width="100" height="99.999"/>
	<rect x="-174.032" y="102.788" fill="#E6E6E6" width="100" height="100"/>
</g>
<g id="Text">
	<path fill="#E6E6E6" d="M50.493,21.4c7.824,7.825,7.824,20.51,0,28.337l0,0L60.536,59.78c13.369-13.361,13.369-35.029,0-48.392
		c0,0,0,0,0-0.005"/>
	<path fill="#C1272D" d="M60.522,11.371C47.154-1.994,25.488-1.989,12.126,11.373c-13.366,13.363-13.363,35.032,0,48.396
		c13.362,13.361,35.032,13.361,48.396,0L50.479,49.722c-7.83,7.83-20.516,7.83-28.341,0c-7.822-7.825-7.822-20.511,0-28.336
		c7.829-7.826,20.511-7.826,28.341,0l0,0l10.044-10.043"/>
	<path fill="#4D4D4D" d="M69.836,6.616c0,0-18.59,27.646-26.891,34.912c-0.457,0.401-0.536,0.458-0.717,0.599
		c-3.854,3.185-9.553,2.708-12.818-1.078l-0.182-0.22c-3.226-3.807-2.682-9.545,1.078-12.839c0.169-0.149,0.203-0.186,0.655-0.557
		c8.522-7,38.875-20.805,38.875-20.805l0,0V6.616z"/>
</g>
</svg>
