<?xml version="1.0" encoding="utf-8"?>
<!-- Generator: Adobe Illustrator 15.0.2, SVG Export Plug-In . SVG Version: 6.00 Build 0)  -->
<!DOCTYPE svg PUBLIC "-//W3C//DTD SVG 1.1//EN" "http://www.w3.org/Graphics/SVG/1.1/DTD/svg11.dtd">
<svg version="1.1" xmlns="http://www.w3.org/2000/svg" xmlns:xlink="http://www.w3.org/1999/xlink" x="0px" y="0px" width="32px"
	 height="32px" viewBox="0 0 32 32" enable-background="new 0 0 32 32" xml:space="preserve">
<g id="Layer_1">
	<g>
		<path fill="#E6E6E6" d="M22.517,9.227c3.601,3.6,3.601,9.438,0,13.039l0,0l4.62,4.621c6.15-6.148,6.151-16.118,0.002-22.267
			h-0.002"/>
		<path fill="#C1272D" d="M27.13,4.611c-6.149-6.149-16.12-6.148-22.268,0c-6.149,6.149-6.149,16.12,0,22.268
			c6.149,6.148,16.118,6.148,22.268,0l-4.622-4.622c-3.601,3.601-9.438,3.601-13.039-0.001c-3.601-3.6-3.6-9.438,0-13.038
			s9.438-3.601,13.038,0l0,0l4.622-4.622"/>
		<path fill="#4D4D4D" d="M31.417,2.424c0,0-8.555,12.721-12.373,16.062c-0.212,0.184-0.248,0.21-0.33,0.278
			c-1.772,1.466-4.395,1.247-5.899-0.496l-0.083-0.099c-1.485-1.754-1.236-4.396,0.495-5.911c0.078-0.067,0.094-0.085,0.302-0.255
			c3.921-3.22,17.888-9.573,17.888-9.573l0,0V2.424z"/>
	</g>
</g>
<g id="Text">
</g>
</svg>
